<svg width="901" height="604" viewBox="0 0 901 604" fill="none" xmlns="http://www.w3.org/2000/svg">
<path d="M207.281 140.089H739.518C754.843 140.089 767.268 152.595 767.268 168.026V483.804C767.268 499.235 754.843 511.741 739.518 511.741H207.281C191.957 511.741 179.531 499.235 179.531 483.804V168.026C179.531 152.595 191.957 140.089 207.281 140.089Z" fill="url(#paint0_linear_555_15390)" stroke="#8D663A" stroke-width="0.5"/>
<path d="M642.69 167.448H683.455C689.715 167.448 694.794 172.558 694.794 178.864C694.794 185.17 689.715 190.28 683.455 190.28H642.69C636.429 190.28 631.351 185.17 631.351 178.864C631.351 172.558 636.429 167.448 642.69 167.448Z" fill="url(#paint1_linear_555_15390)" stroke="#8D663A" stroke-width="0.5"/>
<path d="M556.629 167.448H597.394C603.655 167.448 608.733 172.558 608.733 178.864C608.733 185.17 603.655 190.28 597.394 190.28H556.629C550.368 190.28 545.29 185.17 545.29 178.864C545.29 172.558 550.368 167.448 556.629 167.448Z" fill="url(#paint2_linear_555_15390)" stroke="#8D663A" stroke-width="0.5"/>
<path d="M511.334 167.448C517.594 167.448 522.672 172.558 522.672 178.864C522.672 185.17 517.594 190.28 511.334 190.28C505.073 190.28 499.995 185.17 499.995 178.864C499.995 172.558 505.073 167.448 511.334 167.448Z" fill="url(#paint3_linear_555_15390)" stroke="#8D663A" stroke-width="0.5"/>
<path d="M252.803 383.857H331.861V413.003H365.157V383.857H385.585V355.763H365.157V247.194H321.566L252.803 356.249V383.857ZM332.504 355.763H287.868V354.467L331.217 285.408H332.504V355.763ZM473.368 416.646C514.787 416.646 539.799 384.909 539.88 330.26C539.96 276.017 514.626 244.927 473.368 244.927C432.03 244.927 406.937 275.935 406.857 330.26C406.696 384.747 431.869 416.565 473.368 416.646ZM473.368 387.581C454.469 387.581 442.244 368.474 442.324 330.26C442.405 292.614 454.549 273.668 473.368 273.668C492.107 273.668 504.332 292.614 504.332 330.26C504.412 368.474 492.188 387.581 473.368 387.581ZM562.218 383.857H641.276V413.003H674.572V383.857H695V355.763H674.572V247.194H630.981L562.218 356.249V383.857ZM641.919 355.763H597.283V354.467L640.632 285.408H641.919V355.763Z" fill="#E1CDB7"/>
<path d="M225.973 167.448C230.983 167.448 235.047 171.537 235.047 176.584C235.047 181.632 230.983 185.721 225.973 185.721C220.964 185.721 216.899 181.632 216.899 176.584C216.899 171.537 220.964 167.448 225.973 167.448Z" fill="url(#paint4_linear_555_15390)" stroke="#8D663A" stroke-width="0.5"/>
<path d="M198.531 402.209C198.531 395.766 193.344 390.547 186.948 390.547C180.553 390.547 175.365 395.766 175.365 402.209C175.365 408.651 180.553 413.871 186.948 413.871C193.344 413.871 198.531 408.651 198.531 402.209Z" fill="url(#paint5_linear_555_15390)" stroke="#8D663A" stroke-width="0.5"/>
<path d="M754.237 255.459C758.744 263.318 768.725 266.009 776.53 261.473C784.335 256.937 787.01 246.889 782.503 239.031C777.996 231.172 768.015 228.481 760.21 233.017C752.405 237.553 749.73 247.601 754.237 255.459Z" fill="url(#paint6_linear_555_15390)" stroke="#8D663A" stroke-width="0.5"/>
<path d="M454.964 178.756C454.964 185.485 460.383 190.937 467.063 190.937C473.744 190.937 479.162 185.485 479.162 178.756C479.162 172.027 473.744 166.574 467.063 166.574C460.383 166.574 454.964 172.027 454.964 178.756Z" fill="url(#paint7_linear_555_15390)" stroke="#8D663A" stroke-width="0.5"/>
<path d="M335.595 132.712C335.595 141.713 328.347 149.006 319.41 149.006C310.472 149.006 303.225 141.713 303.225 132.712C303.225 123.711 310.472 116.417 319.41 116.417C328.347 116.417 335.595 123.711 335.595 132.712Z" fill="url(#paint8_linear_555_15390)" stroke="#8D663A" stroke-width="0.5"/>
<path d="M541.025 446.748C541.025 439.329 546.999 433.318 554.364 433.318C561.729 433.318 567.703 439.329 567.703 446.748C567.703 454.166 561.729 460.177 554.364 460.177C546.999 460.177 541.025 454.166 541.025 446.748Z" fill="url(#paint9_linear_555_15390)" stroke="#8D663A" stroke-width="0.5"/>
<path d="M290.77 473.001C290.77 479.808 296.252 485.324 303.01 485.324C309.768 485.324 315.25 479.808 315.25 473.001C315.25 466.193 309.768 460.677 303.01 460.677C296.252 460.677 290.77 466.193 290.77 473.001Z" fill="url(#paint10_linear_555_15390)" stroke="#8D663A" stroke-width="0.5"/>
<path d="M431.228 439.126C433.744 434.738 432.25 429.129 427.893 426.597C423.537 424.065 417.964 425.567 415.448 429.955C412.932 434.342 414.425 439.951 418.782 442.484C423.139 445.016 428.711 443.514 431.228 439.126Z" fill="url(#paint11_linear_555_15390)" stroke="#8D663A" stroke-width="0.5"/>
<path d="M736.707 164.568L719.682 181.705C719.062 182.33 719.062 183.342 719.682 183.966C720.302 184.59 721.307 184.59 721.928 183.965L738.952 166.828C739.572 166.203 739.572 165.191 738.952 164.567C738.332 163.943 737.327 163.943 736.707 164.568Z" fill="#E5E7EB"/>
<path d="M735.041 176.839L730.132 181.781C729.512 182.405 729.511 183.417 730.131 184.041C730.751 184.665 731.757 184.665 732.377 184.041L737.286 179.099C737.906 178.475 737.906 177.463 737.287 176.838C736.667 176.214 735.661 176.215 735.041 176.839Z" fill="#E5E7EB"/>
<path d="M211.636 467.138L196.403 482.473C195.848 483.031 195.848 483.936 196.403 484.495L196.403 484.495C196.958 485.054 197.857 485.054 198.411 484.495L213.645 469.16C214.2 468.602 214.2 467.697 213.645 467.138L213.645 467.138C213.09 466.579 212.191 466.579 211.636 467.138Z" fill="#E5E7EB"/>
<path d="M210.145 478.116L205.751 482.539C205.197 483.098 205.197 484.003 205.751 484.561L205.752 484.562C206.306 485.12 207.206 485.12 207.76 484.562L212.154 480.139C212.709 479.58 212.709 478.675 212.154 478.117L212.153 478.116C211.599 477.558 210.7 477.558 210.145 478.116Z" fill="#E5E7EB"/>
<path d="M137.81 168.905L167.258 139.26C168.331 138.18 168.331 136.43 167.258 135.351C166.186 134.271 164.447 134.271 163.375 135.351L133.926 164.996C132.854 166.075 132.854 167.826 133.926 168.905C134.999 169.985 136.737 169.985 137.81 168.905Z" fill="#D1B28F"/>
<path d="M140.693 147.68L149.186 139.13C150.259 138.051 150.259 136.3 149.186 135.221C148.114 134.141 146.375 134.141 145.303 135.221L136.81 143.77C135.737 144.85 135.737 146.6 136.81 147.68C137.882 148.759 139.621 148.759 140.693 147.68Z" fill="#D1B28F"/>
<path d="M722.66 487.796L743.392 466.926C744.147 466.166 744.147 464.934 743.392 464.174C742.637 463.414 741.413 463.414 740.658 464.174L719.927 485.044C719.172 485.804 719.172 487.036 719.927 487.796C720.681 488.556 721.905 488.556 722.66 487.796Z" fill="#D1B28F"/>
<path d="M724.69 472.855L730.669 466.835C731.424 466.075 731.424 464.843 730.669 464.084C729.914 463.324 728.691 463.324 727.936 464.084L721.956 470.103C721.201 470.863 721.202 472.095 721.956 472.855C722.711 473.614 723.935 473.614 724.69 472.855Z" fill="#D1B28F"/>
<path fill-rule="evenodd" clip-rule="evenodd" d="M708.679 103.458H711.983C712.782 103.458 713.425 104.113 713.425 104.91V108.236C713.425 109.04 712.775 109.687 711.983 109.687H708.679C707.887 109.687 707.237 109.033 707.237 108.236V104.91C707.236 104.719 707.273 104.53 707.346 104.354C707.418 104.178 707.524 104.017 707.658 103.882C707.792 103.748 707.951 103.641 708.126 103.568C708.302 103.495 708.489 103.458 708.679 103.458ZM720.134 103.458H723.438C724.23 103.458 724.88 104.113 724.88 104.91V108.236C724.88 109.04 724.23 109.687 723.438 109.687H720.134C719.342 109.687 718.692 109.033 718.692 108.236V104.91C718.692 104.113 719.342 103.458 720.134 103.458ZM731.597 103.458H734.901C735.694 103.458 736.344 104.113 736.344 104.91V108.236C736.344 109.04 735.694 109.687 734.901 109.687H731.597C730.805 109.687 730.155 109.033 730.155 108.236V104.91C730.154 104.719 730.191 104.53 730.264 104.354C730.336 104.178 730.442 104.017 730.576 103.882C730.71 103.748 730.869 103.641 731.044 103.568C731.219 103.495 731.407 103.458 731.597 103.458ZM743.053 103.458H746.357C747.149 103.458 747.799 104.113 747.799 104.91V108.236C747.799 109.04 747.149 109.687 746.357 109.687H743.053C742.67 109.687 742.302 109.534 742.031 109.262C741.759 108.99 741.606 108.621 741.604 108.236V104.91C741.608 104.525 741.762 104.157 742.033 103.886C742.304 103.614 742.67 103.461 743.053 103.458ZM754.509 103.458H757.813C758.612 103.458 759.262 104.113 759.262 104.91V108.236C759.262 109.04 758.612 109.687 757.813 109.687H754.509C753.717 109.687 753.067 109.033 753.067 108.236V104.91C753.067 104.113 753.717 103.458 754.509 103.458ZM720.554 116.033H723.858C724.651 116.033 725.301 116.688 725.301 117.485V120.818C725.301 121.615 724.651 122.27 723.858 122.27H720.554C719.755 122.27 719.112 121.615 719.112 120.818V117.492C719.111 117.301 719.147 117.111 719.219 116.934C719.291 116.757 719.397 116.596 719.531 116.461C719.665 116.325 719.824 116.217 720 116.144C720.175 116.071 720.364 116.033 720.554 116.033ZM732.01 116.033H735.314C736.106 116.033 736.756 116.688 736.756 117.485V120.818C736.756 121.615 736.106 122.27 735.314 122.27H732.01C731.218 122.27 730.568 121.615 730.568 120.818V117.492C730.567 117.301 730.603 117.111 730.675 116.934C730.747 116.757 730.853 116.596 730.987 116.461C731.121 116.325 731.28 116.217 731.456 116.144C731.631 116.071 731.82 116.033 732.01 116.033ZM743.466 116.033H746.77C747.569 116.033 748.219 116.688 748.219 117.485V120.818C748.217 121.204 748.063 121.573 747.792 121.845C747.52 122.117 747.153 122.27 746.77 122.27H743.466C742.674 122.27 742.024 121.615 742.024 120.818V117.492C742.024 116.688 742.674 116.033 743.466 116.033ZM731.597 89.9487H734.901C735.694 89.9487 736.344 90.6031 736.344 91.4003V94.7274C736.344 95.5307 735.694 96.179 734.901 96.179H731.597C730.805 96.179 730.155 95.5247 730.155 94.7274V91.4003C730.154 91.2096 730.191 91.0207 730.264 90.8444C730.336 90.6681 730.442 90.5079 730.576 90.373C730.71 90.2381 730.869 90.1312 731.044 90.0584C731.219 89.9856 731.407 89.9483 731.597 89.9487ZM743.053 89.9487H746.357C747.149 89.9487 747.799 90.6031 747.799 91.4003V94.7274C747.799 95.5307 747.149 96.179 746.357 96.179H743.053C742.67 96.1787 742.302 96.0259 742.031 95.754C741.759 95.482 741.606 95.1129 741.604 94.7274V91.4003C741.608 91.0154 741.762 90.6476 742.033 90.3761C742.304 90.1046 742.67 89.9511 743.053 89.9487ZM111.913 495.595H115.217C116.016 495.595 116.659 496.25 116.659 497.047V500.373C116.659 501.177 116.009 501.824 115.217 501.824H111.913C111.121 501.824 110.471 501.17 110.471 500.373V497.047C110.47 496.856 110.507 496.667 110.58 496.491C110.652 496.315 110.758 496.154 110.892 496.019C111.026 495.885 111.185 495.778 111.36 495.705C111.536 495.632 111.723 495.595 111.913 495.595ZM123.368 495.595H126.672C127.465 495.595 128.115 496.25 128.115 497.047V500.373C128.115 501.177 127.465 501.824 126.672 501.824H123.368C122.576 501.824 121.926 501.17 121.926 500.373V497.047C121.926 496.25 122.576 495.595 123.368 495.595ZM134.831 495.595H138.136C138.928 495.595 139.578 496.25 139.578 497.047V500.373C139.578 501.177 138.928 501.824 138.136 501.824H134.831C134.039 501.824 133.389 501.17 133.389 500.373V497.047C133.388 496.856 133.426 496.667 133.498 496.491C133.57 496.315 133.677 496.155 133.81 496.02C133.944 495.885 134.103 495.778 134.279 495.705C134.454 495.632 134.641 495.595 134.831 495.595ZM146.287 495.595H149.591C150.383 495.595 151.033 496.25 151.033 497.047V500.373C151.033 501.177 150.383 501.824 149.591 501.824H146.287C145.904 501.824 145.536 501.671 145.265 501.399C144.993 501.127 144.84 500.758 144.838 500.373V497.047C144.842 496.662 144.996 496.294 145.267 496.023C145.538 495.751 145.904 495.598 146.287 495.595ZM157.743 495.595H161.047C161.846 495.595 162.496 496.25 162.496 497.047V500.373C162.496 501.177 161.846 501.824 161.047 501.824H157.743C156.951 501.824 156.301 501.17 156.301 500.373V497.047C156.301 496.25 156.951 495.595 157.743 495.595ZM123.789 508.17H127.093C127.885 508.17 128.535 508.825 128.535 509.622V512.955C128.535 513.752 127.885 514.407 127.093 514.407H123.789C122.99 514.407 122.346 513.752 122.346 512.955V509.629C122.345 509.438 122.381 509.248 122.454 509.071C122.526 508.894 122.632 508.733 122.766 508.598C122.9 508.462 123.059 508.355 123.235 508.281C123.41 508.208 123.599 508.17 123.789 508.17ZM135.244 508.17H138.548C139.34 508.17 139.99 508.825 139.99 509.622V512.955C139.99 513.752 139.34 514.407 138.548 514.407H135.244C134.452 514.407 133.802 513.752 133.802 512.955V509.629C133.801 509.438 133.837 509.248 133.909 509.071C133.981 508.894 134.087 508.733 134.221 508.598C134.355 508.462 134.514 508.354 134.69 508.281C134.865 508.208 135.054 508.17 135.244 508.17ZM146.7 508.17H150.004C150.803 508.17 151.453 508.825 151.453 509.622V512.955C151.451 513.341 151.297 513.71 151.026 513.982C150.754 514.254 150.387 514.406 150.004 514.407H146.7C145.908 514.407 145.258 513.752 145.258 512.955V509.629C145.258 508.825 145.908 508.17 146.7 508.17ZM134.832 482.086H138.136C138.928 482.086 139.578 482.74 139.578 483.538V486.864C139.578 487.669 138.928 488.316 138.136 488.316H134.832C134.039 488.316 133.389 487.662 133.389 486.864V483.538C133.388 483.347 133.425 483.158 133.498 482.982C133.57 482.806 133.676 482.645 133.81 482.51C133.945 482.375 134.104 482.268 134.279 482.195C134.454 482.123 134.642 482.085 134.832 482.086ZM146.287 482.086H149.591C150.383 482.086 151.033 482.74 151.033 483.538V486.864C151.033 487.669 150.383 488.316 149.591 488.316H146.287C145.904 488.316 145.536 488.163 145.265 487.891C144.993 487.619 144.84 487.25 144.838 486.864V483.538C144.842 483.153 144.996 482.785 145.267 482.513C145.538 482.242 145.904 482.088 146.287 482.086Z" fill="#E1CDB7"/>
<path fill-rule="evenodd" clip-rule="evenodd" d="M181.132 328.095C156.492 328.095 136.515 307.701 136.515 282.547C136.515 257.394 156.492 237 181.132 237C205.772 237 225.749 257.394 225.749 282.547C225.749 307.701 205.772 328.095 181.132 328.095Z" fill="#FF5A72"/>
<path d="M199.107 263.219L180.259 283.462L168.943 271.318" stroke="white" stroke-width="7.405" stroke-linecap="round" stroke-linejoin="round"/>
<path d="M161.428 302.841L180.276 282.598L191.592 294.742" stroke="white" stroke-width="7.405" stroke-linecap="round" stroke-linejoin="round"/>
<defs>
<linearGradient id="paint0_linear_555_15390" x1="473.4" y1="139.839" x2="473.4" y2="511.991" gradientUnits="userSpaceOnUse">
<stop stop-color="#48341E"/>
<stop offset="1" stop-color="#48341E" stop-opacity="0"/>
</linearGradient>
<linearGradient id="paint1_linear_555_15390" x1="663.072" y1="167.198" x2="663.072" y2="190.53" gradientUnits="userSpaceOnUse">
<stop stop-color="#48341E"/>
<stop offset="1" stop-color="#48341E" stop-opacity="0"/>
</linearGradient>
<linearGradient id="paint2_linear_555_15390" x1="577.012" y1="167.198" x2="577.012" y2="190.53" gradientUnits="userSpaceOnUse">
<stop stop-color="#48341E"/>
<stop offset="1" stop-color="#48341E" stop-opacity="0"/>
</linearGradient>
<linearGradient id="paint3_linear_555_15390" x1="511.334" y1="167.198" x2="511.334" y2="190.53" gradientUnits="userSpaceOnUse">
<stop stop-color="#48341E"/>
<stop offset="1" stop-color="#48341E" stop-opacity="0"/>
</linearGradient>
<linearGradient id="paint4_linear_555_15390" x1="225.973" y1="167.198" x2="225.973" y2="185.971" gradientUnits="userSpaceOnUse">
<stop stop-color="#48341E"/>
<stop offset="1" stop-color="#48341E" stop-opacity="0"/>
</linearGradient>
<linearGradient id="paint5_linear_555_15390" x1="186.948" y1="414.121" x2="186.948" y2="390.297" gradientUnits="userSpaceOnUse">
<stop stop-color="#48341E"/>
<stop offset="1" stop-color="#48341E" stop-opacity="0"/>
</linearGradient>
<linearGradient id="paint6_linear_555_15390" x1="760.085" y1="232.8" x2="776.82" y2="261.594" gradientUnits="userSpaceOnUse">
<stop stop-color="#48341E"/>
<stop offset="1" stop-color="#48341E" stop-opacity="0"/>
</linearGradient>
<linearGradient id="paint7_linear_555_15390" x1="467.063" y1="166.324" x2="467.063" y2="191.187" gradientUnits="userSpaceOnUse">
<stop stop-color="#48341E"/>
<stop offset="1" stop-color="#48341E" stop-opacity="0"/>
</linearGradient>
<linearGradient id="paint8_linear_555_15390" x1="319.41" y1="116.167" x2="319.41" y2="149.256" gradientUnits="userSpaceOnUse">
<stop stop-color="#48341E"/>
<stop offset="1" stop-color="#48341E" stop-opacity="0"/>
</linearGradient>
<linearGradient id="paint9_linear_555_15390" x1="554.364" y1="460.427" x2="554.364" y2="433.068" gradientUnits="userSpaceOnUse">
<stop stop-color="#48341E"/>
<stop offset="1" stop-color="#48341E" stop-opacity="0"/>
</linearGradient>
<linearGradient id="paint10_linear_555_15390" x1="303.01" y1="460.427" x2="303.01" y2="485.574" gradientUnits="userSpaceOnUse">
<stop stop-color="#48341E"/>
<stop offset="1" stop-color="#48341E" stop-opacity="0"/>
</linearGradient>
<linearGradient id="paint11_linear_555_15390" x1="418.658" y1="442.7" x2="428.111" y2="426.435" gradientUnits="userSpaceOnUse">
<stop stop-color="#48341E"/>
<stop offset="1" stop-color="#48341E" stop-opacity="0"/>
</linearGradient>
</defs>
</svg>
