<svg width="24" height="25" viewBox="0 0 24 25" fill="none" xmlns="http://www.w3.org/2000/svg">
<path d="M3.375 3.47305C2.339 3.47305 1.5 4.31305 1.5 5.34805V6.09805C1.5 7.13405 2.34 7.97305 3.375 7.97305H20.625C21.66 7.97305 22.5 7.13305 22.5 6.09805V5.34805C22.5 4.31205 21.66 3.47305 20.625 3.47305H3.375Z" fill="#F0E6DB"/>
<path fill-rule="evenodd" clip-rule="evenodd" d="M3.08691 9.47305L3.62691 18.6491C3.67179 19.4126 4.00661 20.1302 4.56293 20.6551C5.11925 21.18 5.85505 21.4726 6.61991 21.4731H17.3769C18.1421 21.4731 18.8784 21.1807 19.4352 20.6558C19.9919 20.1308 20.327 19.4129 20.3719 18.6491L20.9129 9.47305H3.08691ZM11.9999 10.9731C12.1988 10.9731 12.3896 11.0521 12.5302 11.1927C12.6709 11.3334 12.7499 11.5241 12.7499 11.7231V16.6631L14.4699 14.9431C14.5386 14.8694 14.6214 14.8103 14.7134 14.7693C14.8054 14.7283 14.9047 14.7062 15.0054 14.7045C15.1061 14.7027 15.2061 14.7212 15.2995 14.7589C15.3929 14.7967 15.4777 14.8528 15.549 14.924C15.6202 14.9952 15.6763 15.0801 15.714 15.1735C15.7518 15.2668 15.7703 15.3669 15.7685 15.4676C15.7667 15.5683 15.7447 15.6676 15.7037 15.7596C15.6627 15.8516 15.6036 15.9344 15.5299 16.0031L12.5299 19.0031C12.3893 19.1435 12.1987 19.2224 11.9999 19.2224C11.8012 19.2224 11.6105 19.1435 11.4699 19.0031L8.46991 16.0031C8.39623 15.9344 8.33712 15.8516 8.29613 15.7596C8.25514 15.6676 8.2331 15.5683 8.23132 15.4676C8.22955 15.3669 8.24807 15.2668 8.28579 15.1735C8.32351 15.0801 8.37966 14.9952 8.45088 14.924C8.5221 14.8528 8.60693 14.7967 8.70032 14.7589C8.7937 14.7212 8.89373 14.7027 8.99444 14.7045C9.09514 14.7062 9.19445 14.7283 9.28645 14.7693C9.37845 14.8103 9.46125 14.8694 9.52991 14.9431L11.2499 16.6631V11.7231C11.2499 11.5241 11.3289 11.3334 11.4696 11.1927C11.6102 11.0521 11.801 10.9731 11.9999 10.9731Z" fill="#F0E6DB"/>
</svg>
