<svg width="652" height="682" viewBox="0 0 652 682" fill="none" xmlns="http://www.w3.org/2000/svg">
<path d="M569.216 146.647L508.154 182.043C504.296 184.224 497.921 184.224 494.063 182.043L432.665 146.647C430.652 145.473 429.646 143.963 429.646 142.454L428.975 353.151C428.975 354.661 429.981 356.171 431.994 357.345L493.392 392.741C497.25 394.921 503.625 394.921 507.483 392.741L568.545 357.345C570.558 356.171 571.397 354.829 571.397 353.319L572.068 142.621C572.068 144.131 571.061 145.473 569.216 146.647Z" fill="url(#paint0_linear_9_4943)"/>
<path d="M569.216 138.428C573.074 140.608 573.074 144.299 569.216 146.647L508.154 182.043C504.296 184.224 497.921 184.224 494.063 182.043L432.665 146.647C428.807 144.467 428.807 140.776 432.665 138.428L493.727 103.032C497.586 100.851 503.96 100.851 507.819 103.032L569.216 138.428Z" fill="#A4D4ED"/>
<path d="M569.216 146.647L508.154 182.043C504.296 184.392 497.921 184.392 494.063 182.043L432.665 146.647C428.807 144.467 428.639 140.776 432.665 138.428L435.853 136.582L493.56 103.032C497.418 100.851 503.792 100.851 507.651 103.032L565.861 136.582L569.048 138.428C573.074 140.776 573.074 144.467 569.216 146.647Z" fill="#F0E6DB"/>
<path d="M569.216 117.794C573.074 119.975 573.074 123.665 569.216 126.014L508.154 161.41C504.296 163.59 497.921 163.59 494.063 161.41L432.665 126.014C428.807 123.833 428.807 120.143 432.665 117.794L493.727 82.3982C497.586 80.2174 503.96 80.2174 507.819 82.3982L569.216 117.794Z" fill="url(#paint1_linear_9_4943)"/>
<path d="M523.252 120.646C524.594 121.317 524.594 122.659 523.252 123.33L503.289 134.905C501.947 135.576 499.934 135.576 498.592 134.905L478.462 123.33C477.12 122.659 477.12 121.317 478.462 120.646L498.424 109.071C499.766 108.4 501.779 108.4 503.122 109.071L523.252 120.646Z" fill="url(#paint2_linear_9_4943)"/>
<path d="M330.504 113.432C359.503 113.432 383.011 99.8383 383.011 83.0691C383.011 66.3 359.503 52.7059 330.504 52.7059C301.505 52.7059 277.997 66.3 277.997 83.0691C277.997 99.8383 301.505 113.432 330.504 113.432Z" fill="url(#paint3_linear_9_4943)"/>
<path opacity="0.37" d="M195.63 301.819L40.7947 391.231V287.727L195.63 198.315V301.819Z" fill="url(#paint4_linear_9_4943)"/>
<path d="M278.165 567.036L180.868 623.569C174.662 627.091 164.596 627.259 158.39 623.569L60.5897 567.036C57.4024 565.191 55.8926 562.842 55.8926 560.494V588.34C55.8926 590.689 57.4024 593.038 60.5897 594.883L158.39 651.415C164.596 654.938 174.662 654.938 180.868 651.415L278.165 594.883C281.185 593.038 282.862 590.689 282.862 588.34V560.494C282.862 562.842 281.352 565.191 278.165 567.036Z" fill="url(#paint5_linear_9_4943)"/>
<path d="M278.165 553.951C284.372 557.474 284.372 563.345 278.165 567.036L180.869 623.568C174.662 627.091 164.597 627.259 158.39 623.568L60.59 567.036C54.3831 563.513 54.3831 557.642 60.59 553.951L157.887 497.418C164.093 493.896 174.159 493.728 180.365 497.418L278.165 553.951Z" fill="#E1CDB7"/>
<path d="M271.623 557.642C274.307 559.151 274.307 561.668 271.623 563.177L174.326 619.71C171.642 621.22 167.281 621.22 164.597 619.71L66.7967 563.177C64.1127 561.668 64.1127 559.151 66.7967 557.642L164.093 501.109C166.777 499.599 171.139 499.599 173.823 501.109L271.623 557.642Z" fill="url(#paint6_linear_9_4943)"/>
<path d="M145.137 559.487C145.976 559.99 145.976 560.829 145.137 561.332L113.096 579.953C112.257 580.456 110.748 580.456 109.909 579.953L77.7004 561.332C76.8616 560.829 76.8616 559.99 77.7004 559.487L109.741 540.866C110.58 540.363 112.09 540.363 112.928 540.866L145.137 559.487Z" fill="url(#paint7_linear_9_4943)"/>
<path d="M129.2 577.94C130.207 578.443 130.207 579.45 129.2 579.953C128.194 580.456 126.516 580.456 125.51 579.953C124.503 579.45 124.503 578.443 125.51 577.94C126.516 577.269 128.194 577.269 129.2 577.94Z" fill="#FF5A72"/>
<path d="M122.994 581.463C124 581.966 124 582.972 122.994 583.476C121.987 583.979 120.309 583.979 119.303 583.476C118.296 582.972 118.296 581.966 119.303 581.463C120.309 580.959 121.987 580.959 122.994 581.463Z" fill="#FF5A72"/>
<path d="M135.407 574.249C136.414 574.752 136.414 575.759 135.407 576.262C134.401 576.766 132.723 576.766 131.717 576.262C130.71 575.759 130.71 574.752 131.717 574.249C132.891 573.746 134.401 573.746 135.407 574.249Z" fill="#FF5A72"/>
<path d="M141.782 570.559C142.788 571.062 142.788 572.068 141.782 572.572C140.775 573.075 139.098 573.075 138.091 572.572C137.085 572.068 137.085 571.062 138.091 570.559C139.098 570.055 140.775 570.055 141.782 570.559Z" fill="#FF5A72"/>
<path d="M147.989 567.036C148.995 567.539 148.995 568.546 147.989 569.049C146.982 569.552 145.305 569.552 144.298 569.049C143.292 568.546 143.292 567.539 144.298 567.036C145.305 566.365 146.982 566.365 147.989 567.036Z" fill="#FF5A72"/>
<path d="M151.344 634.305C152.686 635.143 153.86 636.989 153.86 638.666C153.86 640.176 152.686 640.847 151.344 640.176C150.002 639.337 148.828 637.492 148.828 635.814C148.996 634.137 150.002 633.634 151.344 634.305Z" fill="#FFB06D"/>
<path d="M142.621 629.272C143.963 630.111 145.137 631.956 145.137 633.634C145.137 635.143 143.963 635.814 142.621 635.143C141.279 634.305 140.104 632.459 140.104 630.782C140.104 629.104 141.111 628.433 142.621 629.272Z" fill="#FFB06D"/>
<path d="M133.73 624.072C135.072 624.91 136.246 626.756 136.246 628.433C136.246 629.943 135.072 630.614 133.73 629.775C132.388 628.937 131.214 627.091 131.214 625.414C131.214 623.904 132.22 623.233 133.73 624.072Z" fill="#FFB06D"/>
<path d="M75.0165 582.301V587.502L65.2869 581.966V576.765L75.0165 582.301Z" fill="#DBC3A9"/>
<path d="M86.9272 589.179V594.379L77.1975 588.844V583.643L86.9272 589.179Z" fill="url(#paint8_linear_9_4943)"/>
<path d="M211.903 213.078L24.5228 321.278C20.1612 323.794 16.6384 321.11 16.6384 315.239V164.429C16.6384 158.558 20.1612 151.848 24.5228 149.332L211.903 41.131C216.264 38.6147 219.787 41.2987 219.787 47.1701V197.98C219.787 203.683 216.264 210.561 211.903 213.078Z" fill="url(#paint9_linear_9_4943)"/>
<path d="M186.404 123.33C172.145 128.195 160.738 118.465 146.311 128.53C130.71 139.434 120.981 167.281 105.38 177.178C89.1076 187.411 79.378 170.972 64.6157 171.978C55.0538 172.649 43.6466 181.875 35.4268 193.786V282.863L201.167 187.244V114.439C196.134 118.465 191.269 121.652 186.404 123.33Z" fill="url(#paint10_linear_9_4943)"/>
<path d="M136.078 206.871C121.987 215.929 108.231 218.278 94.979 220.291C81.7265 222.304 68.1385 224.149 53.8796 232.705C47.505 236.563 41.1304 241.931 35.4268 248.473V282.863L201.167 187.244V145.641C191.269 153.022 181.707 163.087 172.481 172.985C160.738 185.734 148.66 198.651 136.078 206.871Z" fill="url(#paint11_linear_9_4943)"/>
<path d="M330.504 227.504C357.928 227.504 380.159 214.661 380.159 198.819C380.159 182.976 357.928 170.133 330.504 170.133C303.08 170.133 280.849 182.976 280.849 198.819C280.849 214.661 303.08 227.504 330.504 227.504Z" fill="url(#paint12_linear_9_4943)"/>
<path d="M307.69 162.584C320.439 155.203 341.072 155.203 353.822 162.584C366.571 169.965 366.571 181.876 353.822 189.257C341.072 196.638 320.439 196.638 307.69 189.257C294.94 181.876 294.94 169.965 307.69 162.584Z" fill="url(#paint13_linear_9_4943)"/>
<path d="M572.236 414.716L356.673 540.028C342.918 548.08 320.606 548.08 306.683 540.028L89.7786 414.716C82.733 410.69 79.3779 405.49 79.3779 400.122V407C79.3779 412.2 82.9007 417.568 89.7786 421.594L306.683 546.906C320.439 554.958 342.918 554.958 356.673 546.906L572.236 421.594C579.113 417.568 582.468 412.368 582.468 407.167V400.29C582.468 405.658 578.946 410.858 572.236 414.716Z" fill="url(#paint14_linear_9_4943)"/>
<path d="M572.068 385.863C585.824 393.915 585.991 406.832 572.236 414.716L356.673 540.028C342.917 548.08 320.606 548.08 306.683 540.028L89.7785 414.716C76.0228 406.664 75.855 393.747 89.6107 385.863L305.173 260.552C318.929 252.499 341.24 252.499 355.163 260.552L572.068 385.863Z" fill="url(#paint15_linear_9_4943)"/>
<path d="M339.227 501.109L307.354 519.562L300.308 515.536L332.349 497.083L339.227 501.109Z" fill="#E9DAC9" fill-opacity="0.58"/>
<path d="M371.1 495.07L317.922 525.601L311.044 521.575L364.054 491.044L371.1 495.07Z" fill="#E9DAC9" fill-opacity="0.58"/>
<path d="M404.818 487.857L328.658 531.808L321.613 527.782L397.94 483.831L404.818 487.857Z" fill="#E9DAC9" fill-opacity="0.58"/>
<path d="M57.738 525.265L14.1223 499.767V473.597L57.738 498.928V525.265Z" fill="url(#paint16_linear_9_4943)"/>
<path d="M57.738 498.928L14.1223 473.598L36.9367 460.513L80.5524 485.844L57.738 498.928Z" fill="url(#paint17_linear_9_4943)"/>
<path d="M80.5525 485.844L36.9368 460.513L36.769 434.343L80.3848 459.674L80.5525 485.844Z" fill="url(#paint18_linear_9_4943)"/>
<path d="M80.3848 459.674L36.769 434.343L59.5834 421.091L103.199 446.422L80.3848 459.674Z" fill="url(#paint19_linear_9_4943)"/>
<path d="M103.199 446.422L59.5833 421.091V394.921L103.199 420.252V446.422Z" fill="url(#paint20_linear_9_4943)"/>
<path d="M103.199 420.252L59.5833 394.921L82.3976 381.837L126.013 407.167L103.199 420.252Z" fill="url(#paint21_linear_9_4943)"/>
<path d="M126.013 407.167V433.337L126.181 459.506V485.676L103.367 498.928L80.5524 512.013L57.738 525.265V498.928L80.5524 485.843L80.3847 459.674L103.199 446.422V420.252L126.013 407.167Z" fill="url(#paint22_linear_9_4943)"/>
<path d="M253.338 209.722C254.344 209.051 255.183 209.555 255.183 210.729C255.183 211.903 254.344 213.413 253.338 213.916C252.331 214.587 251.492 214.084 251.492 212.91C251.492 211.735 252.331 210.393 253.338 209.722Z" fill="#B5E9FE"/>
<path d="M253.338 199.825C254.344 199.154 255.183 199.657 255.183 200.832C255.183 202.006 254.344 203.516 253.338 204.019C252.331 204.69 251.492 204.187 251.492 203.012C251.492 201.838 252.331 200.496 253.338 199.825Z" fill="#B5E9FE"/>
<path d="M253.338 190.095C254.344 189.424 255.183 189.928 255.183 191.102C255.183 192.276 254.344 193.786 253.338 194.289C252.331 194.96 251.492 194.457 251.492 193.283C251.492 192.108 252.331 190.599 253.338 190.095Z" fill="#B5E9FE"/>
<path d="M253.338 180.198C254.344 179.527 255.183 180.03 255.183 181.205C255.183 182.379 254.344 183.889 253.338 184.392C252.331 185.063 251.492 184.56 251.492 183.385C251.492 182.211 252.331 180.701 253.338 180.198Z" fill="#B5E9FE"/>
<path d="M253.338 170.301C254.344 169.63 255.183 170.133 255.183 171.307C255.183 172.481 254.344 173.991 253.338 174.494C252.331 175.165 251.492 174.662 251.492 173.488C251.492 172.314 252.331 170.972 253.338 170.301Z" fill="#B5E9FE"/>
<path d="M253.338 160.403C254.344 159.732 255.183 160.235 255.183 161.41C255.183 162.584 254.344 164.094 253.338 164.597C252.331 165.268 251.492 164.765 251.492 163.591C251.492 162.584 252.331 161.074 253.338 160.403Z" fill="#B5E9FE"/>
<path d="M253.338 150.674C254.344 150.003 255.183 150.506 255.183 151.68C255.183 152.854 254.344 154.364 253.338 154.867C252.331 155.538 251.492 155.035 251.492 153.861C251.492 152.687 252.331 151.177 253.338 150.674Z" fill="#B5E9FE"/>
<path d="M253.338 140.776C254.344 140.105 255.183 140.608 255.183 141.783C255.183 142.957 254.344 144.467 253.338 144.97C252.331 145.641 251.492 145.138 251.492 143.963C251.492 142.789 252.331 141.279 253.338 140.776Z" fill="#B5E9FE"/>
<path d="M253.338 130.879C254.344 130.208 255.183 130.711 255.183 131.885C255.183 133.059 254.344 134.569 253.338 135.072C252.331 135.744 251.492 135.24 251.492 134.066C251.492 132.892 252.331 131.55 253.338 130.879Z" fill="#B5E9FE"/>
<path d="M253.338 120.981C254.344 120.31 255.183 120.814 255.183 121.988C255.183 123.162 254.344 124.672 253.338 125.175C252.331 125.846 251.492 125.343 251.492 124.169C251.492 123.162 252.331 121.652 253.338 120.981Z" fill="#B5E9FE"/>
<path d="M253.338 111.252C254.344 110.581 255.183 111.084 255.183 112.258C255.183 113.432 254.344 114.942 253.338 115.445C252.331 116.116 251.492 115.613 251.492 114.439C251.492 113.265 252.331 111.755 253.338 111.252Z" fill="#B5E9FE"/>
<path d="M253.338 101.354C254.344 100.683 255.183 101.186 255.183 102.361C255.183 103.535 254.344 105.045 253.338 105.548C252.331 106.219 251.492 105.716 251.492 104.541C251.492 103.367 252.331 101.857 253.338 101.354Z" fill="#B5E9FE"/>
<path d="M253.338 91.4567C254.344 90.7857 255.183 91.289 255.183 92.4633C255.183 93.6375 254.344 95.1473 253.338 95.6506C252.331 96.3216 251.492 95.8183 251.492 94.644C251.492 93.4698 252.331 92.1277 253.338 91.4567Z" fill="#B5E9FE"/>
<path d="M253.338 81.5594C254.344 80.8884 255.183 81.3916 255.183 82.5659C255.183 83.7402 254.344 85.25 253.338 85.7532C252.331 86.4242 251.492 85.921 251.492 84.7467C251.492 83.7402 252.331 82.2304 253.338 81.5594Z" fill="#B5E9FE"/>
<path d="M253.338 71.8297C254.344 71.1587 255.183 71.662 255.183 72.8362C255.183 74.0105 254.344 75.5203 253.338 76.0235C252.331 76.6946 251.492 76.1913 251.492 75.017C251.492 73.8428 252.331 72.333 253.338 71.8297Z" fill="#B5E9FE"/>
<path d="M253.338 61.9323C254.344 61.2613 255.183 61.7646 255.183 62.9388C255.183 64.1131 254.344 65.6229 253.338 66.1261C252.331 66.7972 251.492 66.2939 251.492 65.1196C251.492 63.9454 252.331 62.6033 253.338 61.9323Z" fill="#B5E9FE"/>
<path d="M635.478 491.379C636.485 490.708 637.324 491.212 637.324 492.386C637.324 493.56 636.485 495.07 635.478 495.573C634.472 496.244 633.633 495.741 633.633 494.567C633.633 493.392 634.472 491.883 635.478 491.379Z" fill="#F0E6DB"/>
<path d="M635.478 481.482C636.485 480.811 637.324 481.314 637.324 482.488C637.324 483.663 636.485 485.173 635.478 485.676C634.472 486.347 633.633 485.844 633.633 484.669C633.633 483.495 634.472 482.153 635.478 481.482Z" fill="#F0E6DB"/>
<path d="M635.478 471.585C636.485 470.913 637.324 471.417 637.324 472.591C637.324 473.765 636.485 475.275 635.478 475.778C634.472 476.449 633.633 475.946 633.633 474.772C633.633 473.765 634.472 472.256 635.478 471.585Z" fill="#F0E6DB"/>
<path d="M635.478 461.855C636.485 461.184 637.324 461.687 637.324 462.861C637.324 464.036 636.485 465.545 635.478 466.049C634.472 466.72 633.633 466.216 633.633 465.042C633.633 463.868 634.472 462.358 635.478 461.855Z" fill="#F0E6DB"/>
<path d="M635.478 451.957C636.485 451.286 637.324 451.79 637.324 452.964C637.324 454.138 636.485 455.648 635.478 456.151C634.472 456.822 633.633 456.319 633.633 455.145C633.633 453.97 634.472 452.461 635.478 451.957Z" fill="#F0E6DB"/>
<path d="M635.478 442.06C636.485 441.389 637.324 441.892 637.324 443.067C637.324 444.241 636.485 445.751 635.478 446.254C634.472 446.925 633.633 446.422 633.633 445.247C633.633 444.073 634.472 442.731 635.478 442.06Z" fill="#F0E6DB"/>
<path d="M635.478 432.163C636.485 431.492 637.324 431.995 637.324 433.169C637.324 434.343 636.485 435.853 635.478 436.356C634.472 437.027 633.633 436.524 633.633 435.35C633.633 434.343 634.472 432.834 635.478 432.163Z" fill="#F0E6DB"/>
<path d="M635.478 422.433C636.485 421.762 637.324 422.265 637.324 423.439C637.324 424.614 636.485 426.124 635.478 426.627C634.472 427.298 633.633 426.795 633.633 425.62C633.633 424.446 634.472 422.936 635.478 422.433Z" fill="#F0E6DB"/>
<path d="M635.478 412.536C636.485 411.865 637.324 412.368 637.324 413.542C637.324 414.716 636.485 416.226 635.478 416.729C634.472 417.4 633.633 416.897 633.633 415.723C633.633 414.549 634.472 413.039 635.478 412.536Z" fill="#F0E6DB"/>
<path d="M635.478 402.638C636.485 401.967 637.324 402.47 637.324 403.645C637.324 404.819 636.485 406.329 635.478 406.832C634.472 407.503 633.633 407 633.633 405.825C633.633 404.651 634.472 403.309 635.478 402.638Z" fill="#F0E6DB"/>
<path d="M635.478 392.741C636.485 392.07 637.324 392.573 637.324 393.747C637.324 394.921 636.485 396.431 635.478 396.935C634.472 397.606 633.633 397.102 633.633 395.928C633.633 394.921 634.472 393.412 635.478 392.741Z" fill="#F0E6DB"/>
<path d="M635.478 383.011C636.485 382.34 637.324 382.843 637.324 384.018C637.324 385.192 636.485 386.702 635.478 387.205C634.472 387.876 633.633 387.373 633.633 386.198C633.633 385.024 634.472 383.514 635.478 383.011Z" fill="#F0E6DB"/>
<path d="M635.478 373.114C636.485 372.443 637.324 372.946 637.324 374.12C637.324 375.295 636.485 376.804 635.478 377.308C634.472 377.979 633.633 377.475 633.633 376.301C633.633 375.127 634.472 373.617 635.478 373.114Z" fill="#F0E6DB"/>
<path d="M635.478 363.216C636.485 362.545 637.324 363.049 637.324 364.223C637.324 365.397 636.485 366.907 635.478 367.41C634.472 368.081 633.633 367.578 633.633 366.404C633.633 365.229 634.472 363.887 635.478 363.216Z" fill="#F0E6DB"/>
<path d="M635.478 353.319C636.485 352.648 637.324 353.151 637.324 354.325C637.324 355.5 636.485 357.009 635.478 357.513C634.472 358.184 633.633 357.68 633.633 356.506C633.633 355.5 634.472 353.99 635.478 353.319Z" fill="#F0E6DB"/>
<path d="M635.478 343.589C636.485 342.918 637.324 343.421 637.324 344.596C637.324 345.77 636.485 347.28 635.478 347.783C634.472 348.454 633.633 347.951 633.633 346.776C633.633 345.602 634.472 344.092 635.478 343.589Z" fill="#F0E6DB"/>
<path d="M623.232 459.339C624.239 458.668 625.078 459.171 625.078 460.345C625.078 461.519 624.239 463.029 623.232 463.532C622.226 464.203 621.387 463.7 621.387 462.526C621.387 461.352 622.226 459.842 623.232 459.339Z" fill="#F0E6DB"/>
<path d="M623.232 449.441C624.239 448.77 625.078 449.273 625.078 450.448C625.078 451.622 624.239 453.132 623.232 453.635C622.226 454.306 621.387 453.803 621.387 452.628C621.387 451.454 622.226 449.944 623.232 449.441Z" fill="#F0E6DB"/>
<path d="M623.232 439.544C624.239 438.873 625.078 439.376 625.078 440.55C625.078 441.725 624.239 443.234 623.232 443.738C622.226 444.409 621.387 443.905 621.387 442.731C621.387 441.557 622.226 440.215 623.232 439.544Z" fill="#F0E6DB"/>
<path d="M623.232 429.646C624.239 428.975 625.078 429.479 625.078 430.653C625.078 431.827 624.239 433.337 623.232 433.84C622.226 434.511 621.387 434.008 621.387 432.834C621.387 431.827 622.226 430.317 623.232 429.646Z" fill="#F0E6DB"/>
<path d="M623.232 419.917C624.239 419.246 625.078 419.749 625.078 420.923C625.078 422.097 624.239 423.607 623.232 424.11C622.226 424.781 621.387 424.278 621.387 423.104C621.387 421.93 622.226 420.42 623.232 419.917Z" fill="#F0E6DB"/>
<path d="M623.232 410.019C624.239 409.348 625.078 409.852 625.078 411.026C625.078 412.2 624.239 413.71 623.232 414.213C622.226 414.884 621.387 414.381 621.387 413.207C621.387 412.032 622.226 410.523 623.232 410.019Z" fill="#F0E6DB"/>
<path d="M623.232 400.122C624.239 399.451 625.078 399.954 625.078 401.128C625.078 402.303 624.239 403.812 623.232 404.316C622.226 404.987 621.387 404.483 621.387 403.309C621.387 402.135 622.226 400.793 623.232 400.122Z" fill="#F0E6DB"/>
<path d="M623.232 390.224C624.239 389.553 625.078 390.057 625.078 391.231C625.078 392.405 624.239 393.915 623.232 394.418C622.226 395.089 621.387 394.586 621.387 393.412C621.387 392.405 622.226 390.895 623.232 390.224Z" fill="#F0E6DB"/>
<path d="M623.232 380.495C624.239 379.824 625.078 380.327 625.078 381.501C625.078 382.676 624.239 384.185 623.232 384.689C622.226 385.36 621.387 384.856 621.387 383.682C621.387 382.508 622.226 380.998 623.232 380.495Z" fill="#F0E6DB"/>
<path d="M623.232 370.597C624.239 369.926 625.078 370.43 625.078 371.604C625.078 372.778 624.239 374.288 623.232 374.791C622.226 375.462 621.387 374.959 621.387 373.785C621.387 372.61 622.226 371.268 623.232 370.597Z" fill="#F0E6DB"/>
<path d="M623.232 360.7C624.239 360.029 625.078 360.532 625.078 361.706C625.078 362.881 624.239 364.39 623.232 364.894C622.226 365.565 621.387 365.061 621.387 363.887C621.387 362.713 622.226 361.371 623.232 360.7Z" fill="#F0E6DB"/>
<path d="M623.232 350.802C624.239 350.131 625.078 350.635 625.078 351.809C625.078 352.983 624.239 354.493 623.232 354.996C622.226 355.667 621.387 355.164 621.387 353.99C621.387 352.983 622.226 351.473 623.232 350.802Z" fill="#F0E6DB"/>
<path d="M623.232 341.073C624.239 340.402 625.078 340.905 625.078 342.079C625.078 343.254 624.239 344.763 623.232 345.267C622.226 345.938 621.387 345.434 621.387 344.26C621.387 343.086 622.226 341.576 623.232 341.073Z" fill="#F0E6DB"/>
<path d="M623.232 331.175C624.239 330.504 625.078 331.008 625.078 332.182C625.078 333.356 624.239 334.866 623.232 335.369C622.226 336.04 621.387 335.537 621.387 334.363C621.387 333.189 622.226 331.846 623.232 331.175Z" fill="#F0E6DB"/>
<path d="M623.232 321.278C624.239 320.607 625.078 321.11 625.078 322.285C625.078 323.459 624.239 324.969 623.232 325.472C622.226 326.143 621.387 325.64 621.387 324.465C621.387 323.291 622.226 321.949 623.232 321.278Z" fill="#F0E6DB"/>
<path d="M623.232 311.548C624.239 310.877 625.078 311.381 625.078 312.555C625.078 313.729 624.239 315.239 623.232 315.742C622.226 316.413 621.387 315.91 621.387 314.736C621.387 313.561 622.226 312.052 623.232 311.548Z" fill="#F0E6DB"/>
<path d="M2.37946 437.028C3.38598 436.356 4.22474 436.86 4.22474 438.034C4.22474 439.208 3.38598 440.718 2.37946 441.221C1.37294 441.892 0.53418 441.389 0.53418 440.215C0.53418 439.041 1.37294 437.699 2.37946 437.028Z" fill="#B5E9FE"/>
<path d="M2.37946 427.13C3.38598 426.459 4.22474 426.962 4.22474 428.137C4.22474 429.311 3.38598 430.821 2.37946 431.324C1.37294 431.995 0.53418 431.492 0.53418 430.317C0.53418 429.311 1.37294 427.801 2.37946 427.13Z" fill="#B5E9FE"/>
<path d="M2.37946 417.4C3.38598 416.729 4.22474 417.233 4.22474 418.407C4.22474 419.581 3.38598 421.091 2.37946 421.594C1.37294 422.265 0.53418 421.762 0.53418 420.588C0.53418 419.414 1.37294 417.904 2.37946 417.4Z" fill="#B5E9FE"/>
<path d="M2.37946 407.503C3.38598 406.832 4.22474 407.335 4.22474 408.51C4.22474 409.684 3.38598 411.194 2.37946 411.697C1.37294 412.368 0.53418 411.865 0.53418 410.69C0.53418 409.516 1.37294 408.174 2.37946 407.503Z" fill="#B5E9FE"/>
<path d="M2.37946 397.606C3.38598 396.935 4.22474 397.438 4.22474 398.612C4.22474 399.786 3.38598 401.296 2.37946 401.799C1.37294 402.638 0.53418 402.135 0.53418 400.961C0.53418 399.619 1.37294 398.277 2.37946 397.606Z" fill="#B5E9FE"/>
<path d="M2.37946 387.708C3.38598 387.037 4.22474 387.54 4.22474 388.715C4.22474 389.889 3.38598 391.399 2.37946 391.902C1.37294 392.573 0.53418 392.07 0.53418 390.896C0.53418 389.889 1.37294 388.379 2.37946 387.708Z" fill="#B5E9FE"/>
<path d="M2.37946 377.979C3.38598 377.308 4.22474 377.811 4.22474 378.985C4.22474 380.159 3.38598 381.669 2.37946 382.172C1.37294 382.843 0.53418 382.34 0.53418 381.166C0.53418 379.992 1.37294 378.482 2.37946 377.979Z" fill="#B5E9FE"/>
<path d="M2.37946 368.081C3.38598 367.41 4.22474 367.913 4.22474 369.088C4.22474 370.262 3.38598 371.772 2.37946 372.275C1.37294 372.946 0.53418 372.443 0.53418 371.268C0.53418 370.094 1.37294 368.752 2.37946 368.081Z" fill="#B5E9FE"/>
<path d="M2.37946 358.184C3.38598 357.513 4.22474 358.016 4.22474 359.19C4.22474 360.364 3.38598 361.874 2.37946 362.378C1.37294 363.049 0.53418 362.545 0.53418 361.371C0.53418 360.197 1.37294 358.855 2.37946 358.184Z" fill="#B5E9FE"/>
<path d="M2.37946 348.454C3.38598 347.783 4.22474 348.286 4.22474 349.461C4.22474 350.635 3.38598 352.145 2.37946 352.648C1.37294 353.319 0.53418 352.816 0.53418 351.641C0.53418 350.467 1.37294 348.957 2.37946 348.454Z" fill="#B5E9FE"/>
<path d="M2.37946 338.557C3.38598 337.886 4.22474 338.389 4.22474 339.563C4.22474 340.737 3.38598 342.247 2.37946 342.751C1.37294 343.422 0.53418 342.918 0.53418 341.744C0.53418 340.57 1.37294 339.06 2.37946 338.557Z" fill="#B5E9FE"/>
<path d="M2.37946 328.659C3.38598 327.988 4.22474 328.491 4.22474 329.666C4.22474 330.84 3.38598 332.35 2.37946 332.853C1.37294 333.524 0.53418 333.021 0.53418 331.847C0.53418 330.672 1.37294 329.33 2.37946 328.659Z" fill="#B5E9FE"/>
<path d="M2.37946 318.762C3.38598 318.091 4.22474 318.594 4.22474 319.768C4.22474 320.943 3.38598 322.452 2.37946 322.956C1.37294 323.794 0.53418 323.291 0.53418 322.117C0.53418 320.943 1.37294 319.433 2.37946 318.762Z" fill="#B5E9FE"/>
<path d="M2.37946 309.032C3.38598 308.361 4.22474 308.864 4.22474 310.039C4.22474 311.213 3.38598 312.723 2.37946 313.226C1.37294 313.897 0.53418 313.394 0.53418 312.219C0.53418 311.045 1.37294 309.535 2.37946 309.032Z" fill="#B5E9FE"/>
<path d="M2.37946 299.135C3.38598 298.464 4.22474 298.967 4.22474 300.141C4.22474 301.316 3.38598 302.825 2.37946 303.329C1.37294 304 0.53418 303.496 0.53418 302.322C0.53418 301.148 1.37294 299.638 2.37946 299.135Z" fill="#B5E9FE"/>
<path d="M2.37946 289.237C3.38598 288.566 4.22474 289.07 4.22474 290.244C4.22474 291.418 3.38598 292.928 2.37946 293.431C1.37294 294.102 0.53418 293.599 0.53418 292.425C0.53418 291.25 1.37294 289.908 2.37946 289.237Z" fill="#B5E9FE"/>
<path d="M200.16 632.46L276.152 676.411C284.372 681.108 297.457 681.108 305.676 676.411L510.167 558.313C518.387 553.616 518.387 545.899 510.167 541.202L436.691 498.928" stroke="#F0E6DB" stroke-width="2.83402" stroke-miterlimit="10" stroke-linecap="round" stroke-linejoin="round"/>
<path d="M237.904 610.484L257.699 621.891C265.919 626.588 279.003 626.588 287.223 621.891L419.58 545.396C427.8 540.699 427.8 532.982 419.58 528.285L401.463 517.884" stroke="#F0E6DB" stroke-width="2.83402" stroke-miterlimit="10" stroke-linecap="round" stroke-linejoin="round"/>
<path d="M430.484 604.277L474.771 629.775C482.991 634.473 496.076 634.473 504.296 629.775L644.369 548.919C652.589 544.222 652.589 536.505 644.369 531.808L509.328 453.803" stroke="#F0E6DB" stroke-width="2.83402" stroke-miterlimit="10" stroke-linecap="round" stroke-linejoin="round"/>
<path opacity="0.2" d="M540.362 621.723C554.167 621.723 565.358 615.264 565.358 607.297C565.358 599.329 554.167 592.87 540.362 592.87C526.558 592.87 515.367 599.329 515.367 607.297C515.367 615.264 526.558 621.723 540.362 621.723Z" fill="#E1CDB7"/>
<path d="M540.362 613.671C546.477 613.671 551.434 610.817 551.434 607.297C551.434 603.776 546.477 600.922 540.362 600.922C534.248 600.922 529.291 603.776 529.291 607.297C529.291 610.817 534.248 613.671 540.362 613.671Z" fill="#FAA379"/>
<path opacity="0.2" d="M592.869 592.534C606.674 592.534 617.864 586.075 617.864 578.108C617.864 570.14 606.674 563.681 592.869 563.681C579.065 563.681 567.874 570.14 567.874 578.108C567.874 586.075 579.065 592.534 592.869 592.534Z" fill="#E1CDB7"/>
<path d="M585.152 573.578C589.514 571.062 596.392 571.062 600.753 573.578C605.115 576.095 605.115 580.121 600.753 582.637C596.392 585.153 589.514 585.153 585.152 582.637C580.791 580.121 580.791 576.095 585.152 573.578Z" fill="#FAA379"/>
<path opacity="0.2" d="M541.537 471.081C551.266 465.378 567.035 465.378 576.765 471.081C586.494 476.785 586.494 485.844 576.765 491.379C567.035 497.083 551.266 497.083 541.537 491.379C531.807 485.844 531.807 476.617 541.537 471.081Z" fill="#E1CDB7"/>
<path d="M551.266 476.785C555.628 474.269 562.506 474.269 566.867 476.785C571.229 479.301 571.229 483.327 566.867 485.844C562.506 488.36 555.628 488.36 551.266 485.844C547.073 483.16 547.073 479.301 551.266 476.785Z" fill="#FAA379"/>
<path opacity="0.2" d="M339.227 606.793C353.031 606.793 364.222 600.334 364.222 592.367C364.222 584.399 353.031 577.94 339.227 577.94C325.422 577.94 314.232 584.399 314.232 592.367C314.232 600.334 325.422 606.793 339.227 606.793Z" fill="#E1CDB7"/>
<path d="M331.51 588.005C335.872 585.489 342.75 585.489 347.111 588.005C351.473 590.521 351.473 594.547 347.111 597.064C342.75 599.58 335.872 599.58 331.51 597.064C327.149 594.38 327.149 590.354 331.51 588.005Z" fill="#FAA379"/>
<path d="M70.8228 322.62C71.997 320.607 73.5068 318.259 74.8488 317.42" stroke="#FAB08B" stroke-width="5.08727" stroke-miterlimit="10" stroke-linecap="round" stroke-linejoin="round"/>
<path d="M63.9448 355.5C63.106 346.273 60.5897 338.221 69.8161 323.627" stroke="#01A3F8" stroke-width="6.4917" stroke-miterlimit="10" stroke-linecap="round" stroke-linejoin="round"/>
<path d="M68.8095 397.438C68.8095 397.438 72.3323 418.743 73.6744 421.762C73.6744 421.762 71.1581 445.919 72.3323 447.428C73.5066 448.77 77.7004 449.106 78.5392 447.428C79.378 445.751 84.4105 416.394 83.2363 413.375C82.062 410.523 78.3714 392.405 78.3714 392.405C78.3714 392.405 67.803 391.902 68.8095 397.438Z" fill="#FF5A72"/>
<path d="M58.0734 391.902C58.0734 391.902 61.5963 413.207 62.9383 416.226C62.9383 416.226 60.422 440.383 61.5963 441.892C62.7705 443.234 66.9643 443.57 67.8031 441.892C68.6419 440.215 73.6745 410.858 72.5002 407.839C71.3259 404.987 67.6354 386.87 67.6354 386.87C67.6354 386.87 57.0669 386.366 58.0734 391.902Z" fill="#FF5A72"/>
<path d="M79.7134 365.565V391.399C79.7134 397.102 79.2101 396.767 77.3648 397.773C77.3648 397.773 74.0098 399.115 70.3192 396.767L61.0928 391.399C59.0798 390.225 57.9055 388.212 57.9055 386.031V365.397C57.9055 365.062 57.9055 364.726 58.0733 364.391C58.241 360.868 59.7508 355.5 63.6091 353.319C69.6482 349.964 75.5196 355.332 75.6873 355.5C79.2101 358.855 79.7134 362.21 79.7134 365.565Z" fill="#01A3F8"/>
<path d="M69.9836 348.286C69.1449 347.783 67.6351 347.783 66.6286 348.286C65.7898 348.79 65.7898 349.796 66.6286 350.299C67.4673 350.803 68.9771 350.803 69.9836 350.299C70.9902 349.628 70.9902 348.79 69.9836 348.286Z" fill="#FAA379"/>
<path d="M69.9838 350.132C69.1451 350.635 67.6353 350.635 66.6288 350.132C66.1255 349.796 65.9578 349.461 65.9578 349.125V353.654C65.9578 353.99 66.1255 354.325 66.6288 354.661C67.4675 355.164 68.9773 355.164 69.9838 354.661C70.4871 354.325 70.6548 353.99 70.6548 353.654V349.293C70.6548 349.628 70.4871 349.964 69.9838 350.132Z" fill="#FAB08B"/>
<path d="M76.526 338.724V344.428C76.526 348.957 72.8354 352.648 68.3061 352.648C63.7767 352.648 60.0862 348.957 60.0862 344.428V338.724C60.0862 338.053 60.0862 337.382 60.2539 336.879C60.2539 336.711 60.2539 336.544 60.4217 336.376C61.4282 333.021 64.6155 330.672 68.1383 330.672C70.3191 330.672 72.4999 331.511 73.8419 333.021C75.6872 334.363 76.526 336.376 76.526 338.724Z" fill="#FAB08B"/>
<path d="M66.9641 329.33C65.7898 329.33 64.6155 329.834 63.7768 330.169C62.938 327.988 61.2605 325.304 57.7377 326.982C52.3696 329.498 49.35 336.544 53.7116 339.396C55.3891 340.57 57.4022 341.409 59.4152 341.744C59.2475 345.435 60.0862 349.628 64.1123 351.138C66.1253 351.977 68.4739 351.977 69.6481 350.97C70.6546 349.796 71.1579 347.783 71.1579 347.783C71.1579 347.783 69.6481 348.622 69.3126 346.777C68.9771 344.764 69.6481 344.596 70.6546 344.931C71.6612 345.435 72.4999 344.093 72.4999 344.093C72.4999 344.093 72.8354 341.409 74.3452 340.067C75.855 338.724 76.526 336.208 76.526 336.208C77.7003 333.524 71.4934 329.163 66.9641 329.33Z" fill="#02007D"/>
<path d="M92.798 331.008C103.823 331.008 112.761 322.07 112.761 311.045C112.761 300.02 103.823 291.083 92.798 291.083C81.773 291.083 72.8354 300.02 72.8354 311.045C72.8354 322.07 81.773 331.008 92.798 331.008Z" fill="url(#paint23_radial_9_4943)"/>
<path d="M96.9919 336.544C97.3274 334.195 97.663 331.511 97.1597 330.001" stroke="#FAB08B" stroke-width="5.08727" stroke-miterlimit="10" stroke-linecap="round" stroke-linejoin="round"/>
<path d="M76.3584 363.049C84.075 357.848 91.7917 354.493 97.1597 338.221" stroke="#01A3F8" stroke-width="6.4917" stroke-miterlimit="10" stroke-linecap="round" stroke-linejoin="round"/>
<path d="M407.502 359.19V381.333C407.502 376.469 406.16 371.604 403.476 366.907C399.786 360.7 393.746 354.828 385.023 349.796C356.002 333.021 309.702 332.517 279.842 348.286C279.004 348.789 277.997 349.293 277.158 349.796C262.396 358.351 255.015 369.591 255.015 380.83V358.687C255.015 347.447 262.396 336.208 277.158 327.653C277.997 327.149 279.004 326.646 279.842 326.143C309.702 310.374 356.002 310.877 385.023 327.653C393.579 332.685 399.786 338.556 403.476 344.763C406.16 349.46 407.502 354.325 407.502 359.19Z" fill="url(#paint24_linear_9_4943)"/>
<path d="M442.395 406.496C442.06 406.664 441.724 407 441.389 407.167C440.718 407.671 440.047 408.174 439.543 408.677C438.537 409.516 437.362 410.187 436.356 411.026C434.007 412.535 431.659 414.045 429.143 415.555C375.462 446.757 288.063 446.757 234.046 415.555C211.735 402.638 198.65 386.534 194.624 369.758C194.456 368.92 194.289 368.249 194.121 367.41C193.953 366.739 193.953 366.236 193.785 365.732C193.785 365.397 193.618 365.061 193.618 364.726C193.45 363.552 193.282 362.21 193.282 361.035C193.282 360.868 193.282 360.868 193.282 360.7C193.282 360.364 193.282 360.029 193.282 359.861V359.693V357.848C193.282 357.68 193.282 357.68 193.282 357.512V359.525C193.282 359.358 193.282 359.19 193.282 359.022V358.351V358.183V358.854V380.998C193.282 381.333 193.282 381.669 193.282 381.837C193.282 382.172 193.282 382.508 193.282 382.675C193.282 384.017 193.45 385.359 193.618 386.701C193.618 387.037 193.785 387.372 193.785 387.708C193.785 388.211 193.953 388.714 194.121 389.385C194.289 390.057 194.456 390.895 194.624 391.734C198.65 408.509 211.735 424.614 234.046 437.531C288.063 468.733 375.462 468.733 429.143 437.531C431.659 436.021 434.007 434.511 436.356 433.001C437.53 432.33 438.537 431.491 439.543 430.653C440.214 430.149 440.885 429.646 441.389 429.143C441.724 428.975 442.06 428.64 442.395 428.472C460.177 414.548 469.068 397.941 469.236 381.333V359.19C469.068 375.965 460.177 392.573 442.395 406.496Z" fill="url(#paint25_linear_9_4943)"/>
<path d="M436.188 410.858C433.839 412.368 431.491 413.878 428.975 415.387C375.294 446.589 287.895 446.589 233.878 415.387C211.567 402.47 198.482 386.366 194.456 369.591C194.289 368.752 194.121 368.081 193.953 367.242C193.785 366.571 193.785 366.068 193.618 365.565C193.618 365.229 193.45 364.894 193.45 364.558C193.282 363.216 193.114 361.874 193.114 360.532C193.114 360.197 193.114 359.861 193.114 359.693C193.114 359.19 193.114 358.855 193.114 358.351C193.114 358.184 193.114 357.848 193.114 357.68C193.114 357.177 193.114 356.674 193.114 356.003C193.114 355.835 193.114 355.667 193.114 355.5C193.114 354.996 193.114 354.493 193.282 353.99C193.45 352.983 193.45 352.144 193.618 351.138C193.785 350.467 193.953 349.628 193.953 348.957C194.121 348.286 194.289 347.615 194.456 346.776C194.792 345.77 194.96 345.099 195.127 344.428C198.986 331.846 208.044 319.768 222.303 309.368C223.142 308.696 223.981 308.193 224.82 307.522C225.323 307.187 225.658 306.851 226.162 306.683C226.665 306.348 227.168 306.012 227.839 305.677C228.175 305.509 228.51 305.174 228.846 305.006C229.517 304.67 230.188 304.167 230.859 303.832C231.53 303.328 232.368 302.993 233.039 302.49C234.717 301.483 236.227 300.644 237.904 299.806C238.24 299.638 238.575 299.47 238.743 299.302C239.414 298.967 240.085 298.631 240.756 298.296C241.427 297.96 242.266 297.625 243.105 297.122C244.782 296.283 246.627 295.444 248.473 294.773C250.15 294.102 251.157 293.599 252.331 293.263C301.147 273.636 367.074 274.475 414.716 295.612C415.051 295.78 415.219 295.947 415.554 295.947C416.393 296.283 417.064 296.618 417.903 296.954C419.077 297.457 419.748 297.793 420.587 298.296C421.761 298.799 422.432 299.302 423.271 299.638C425.116 300.644 426.794 301.483 428.471 302.49C429.142 302.825 429.813 303.328 430.652 303.664C430.82 303.832 431.155 303.999 431.323 303.999C431.994 304.335 432.497 304.67 433.168 305.174C434.678 306.18 435.181 306.516 435.685 306.851C436.188 307.187 436.524 307.354 436.859 307.69C437.53 308.193 438.033 308.529 438.537 308.864C438.704 309.032 438.872 309.2 439.208 309.368C439.543 309.535 439.879 309.871 440.214 310.039C440.885 310.542 441.221 310.877 441.556 311.045C441.892 311.381 442.395 311.716 442.73 311.884C443.737 312.723 444.743 313.561 445.75 314.4C446.589 315.071 447.26 315.742 447.931 316.413C448.098 316.581 448.434 316.749 448.602 316.916C449.44 317.587 450.111 318.426 450.95 319.097C452.125 320.271 452.796 321.11 453.634 321.949C477.623 348.789 473.932 381.501 442.563 406.161C442.227 406.329 441.892 406.664 441.556 406.832C440.885 407.335 440.214 407.838 439.711 408.342C438.369 409.348 437.362 410.187 436.188 410.858ZM277.494 390.224C307.354 407.503 355.667 407.503 385.359 390.224C406.496 377.978 412.535 360.197 403.476 344.763C399.786 338.556 393.747 332.685 385.023 327.653C356.002 310.877 309.702 310.374 279.842 326.143C279.004 326.646 277.997 327.149 277.158 327.653C259.712 337.718 252.499 351.641 255.686 364.894C257.867 374.12 265.08 383.011 277.494 390.224Z" fill="url(#paint26_linear_9_4943)"/>
<path d="M406.831 337.215V359.358C406.831 354.493 405.489 349.628 402.805 344.931C399.115 338.724 393.076 332.853 384.352 327.82C355.331 311.045 309.031 310.542 279.171 326.311C278.333 326.814 277.326 327.317 276.487 327.82C261.725 336.376 254.344 347.615 254.344 358.855V336.711C254.344 325.472 261.725 314.232 276.487 305.677C277.326 305.174 278.333 304.67 279.171 304.167C309.031 288.398 355.331 288.902 384.352 305.677C392.908 310.71 399.115 316.581 402.805 322.788C405.489 327.485 406.831 332.35 406.831 337.215Z" fill="url(#paint27_linear_9_4943)"/>
<path d="M255.015 342.918L254.847 365.061L193.953 369.926V347.615L255.015 342.918Z" fill="#FFC28F"/>
<path d="M468.229 337.382V359.526C468.229 377.978 457.325 396.431 435.685 411.026C433.336 412.535 430.988 414.045 428.471 415.555V393.412C430.988 391.902 433.336 390.392 435.685 388.882C457.325 374.12 468.229 355.835 468.229 337.382Z" fill="url(#paint28_linear_9_4943)"/>
<path d="M427.8 280.514C428.471 280.85 429.142 281.353 429.981 281.688C430.149 281.856 430.484 282.024 430.652 282.024C431.323 282.359 431.826 282.695 432.497 283.198C434.007 284.205 434.51 284.54 435.014 284.876C436.691 286.05 438.033 287.056 439.543 288.063C440.382 288.734 441.053 289.237 441.556 289.741C450.111 296.451 456.654 303.832 461.015 311.548C476.113 337.55 467.725 367.242 435.685 389.05C433.336 390.56 430.988 392.07 428.471 393.579L384.688 368.417C405.825 356.171 411.864 338.389 402.805 322.956C399.115 316.749 393.075 310.877 384.352 305.845C355.331 289.069 309.031 288.566 279.171 304.335C278.333 304.838 277.326 305.342 276.487 305.845C259.041 315.91 251.828 329.833 255.015 343.086L193.953 347.951C193.785 347.112 193.617 346.441 193.45 345.602C193.282 344.931 193.282 344.428 193.114 343.925C193.114 343.589 192.946 343.254 192.946 342.918C192.779 341.576 192.611 340.234 192.611 338.892C192.611 338.557 192.611 338.221 192.611 338.053C192.611 337.55 192.611 337.215 192.611 336.711C192.611 336.544 192.611 336.208 192.611 336.04C192.611 335.537 192.611 335.034 192.611 334.363C192.611 334.195 192.611 334.027 192.611 333.859C192.611 333.356 192.611 332.853 192.779 332.35C192.779 331.343 192.946 330.504 193.114 329.498C193.282 328.827 193.45 327.988 193.45 327.317C193.617 326.646 193.785 325.975 193.953 325.136C194.288 324.13 194.456 323.459 194.624 322.788C198.65 310.039 207.876 297.96 221.8 287.727C222.639 287.056 223.477 286.553 224.316 285.882C224.819 285.547 225.155 285.211 225.658 285.043C226.161 284.708 226.665 284.372 227.336 284.037C227.671 283.869 228.007 283.534 228.342 283.366C229.013 283.03 229.684 282.527 230.355 282.192C231.026 281.688 231.865 281.353 232.536 280.85C234.214 279.843 235.723 279.004 237.401 278.166C237.736 277.998 238.072 277.83 238.24 277.662C238.911 277.327 239.582 276.991 240.253 276.656C241.091 276.153 241.93 275.817 242.937 275.314C243.775 274.978 244.782 274.475 245.621 274.139C246.795 273.636 247.634 273.301 248.473 272.965C250.318 272.126 252.163 271.455 254.176 270.617C255.183 270.281 256.021 269.946 257.028 269.61C291.753 257.029 334.362 254.345 372.61 261.39C373.616 261.558 374.79 261.726 375.797 262.061C378.984 262.732 382.171 263.403 385.191 264.242C386.198 264.41 387.036 264.745 388.043 264.913C389.385 265.249 390.224 265.416 390.895 265.752C392.237 266.087 393.075 266.423 393.914 266.591C394.25 266.591 394.417 266.758 394.753 266.758C395.424 266.926 396.263 267.262 397.101 267.429C398.443 267.933 399.282 268.1 400.121 268.436C401.295 268.771 402.134 269.107 402.973 269.442C404.147 269.946 404.818 270.113 405.321 270.281C405.825 270.449 406.328 270.617 406.663 270.784C406.999 270.952 407.167 270.952 407.502 271.12C408.173 271.455 408.844 271.623 409.515 271.959C410.857 272.462 411.528 272.797 412.367 273.133C413.373 273.468 414.212 273.972 415.051 274.307C415.89 274.643 416.561 274.978 417.4 275.314C418.238 275.649 418.909 275.985 419.58 276.32C421.09 276.991 421.929 277.495 422.6 277.83C424.445 278.669 426.123 279.508 427.8 280.514Z" fill="url(#paint29_linear_9_4943)"/>
<path d="M428.471 393.412L428.303 415.723L384.688 390.392V368.249L428.471 393.412Z" fill="#FF9D4A"/>
<path d="M278.836 282.192V304.335L237.233 277.83L237.401 255.687L278.836 282.192Z" fill="#FF8799"/>
<path d="M402.47 300.644V322.788C398.779 316.581 392.572 310.71 384.017 305.677C354.996 288.902 308.696 288.398 278.836 304.167V282.024C308.696 266.255 354.996 266.758 384.017 283.534C392.74 288.566 398.947 294.438 402.47 300.644Z" fill="url(#paint30_linear_9_4943)"/>
<path d="M460.848 289.237V311.548L402.47 322.956V300.644L460.848 289.237Z" fill="#F73450"/>
<path d="M427.465 258.371C428.136 258.706 428.807 259.209 429.646 259.545C429.813 259.713 430.149 259.88 430.317 259.88C430.988 260.216 431.491 260.551 432.162 261.055L432.833 261.558C433.672 262.061 434.175 262.397 434.678 262.732C435.181 263.068 435.517 263.235 435.852 263.571C436.523 264.074 437.027 264.41 437.53 264.745C437.698 264.913 437.865 265.081 438.201 265.249C438.536 265.416 438.872 265.752 439.207 265.92C439.878 266.423 440.214 266.758 440.549 266.926C440.717 267.094 441.053 267.262 441.221 267.429C441.388 267.597 441.556 267.765 441.724 267.765C449.944 274.307 456.318 281.521 460.848 289.069L402.47 300.477C398.779 294.27 392.572 288.398 384.017 283.366C354.996 266.591 308.696 266.087 278.836 281.856L237.233 255.351C237.569 255.183 237.904 255.016 238.072 254.848C238.743 254.512 239.414 254.177 240.085 253.841C240.756 253.506 241.595 253.17 242.433 252.667C243.608 252.164 244.614 251.661 245.453 251.325C246.46 250.822 247.131 250.654 247.802 250.318C247.969 250.318 248.137 250.151 248.305 250.151C250.15 249.312 251.995 248.641 254.008 247.802C255.015 247.467 255.854 247.131 256.86 246.796C291.753 234.214 334.362 231.53 372.442 238.576C373.448 238.744 374.623 238.911 375.629 239.247C378.816 239.918 382.004 240.589 385.023 241.428C386.03 241.595 386.869 241.931 387.875 242.099C388.043 242.099 388.211 242.266 388.378 242.266C389.217 242.434 390.056 242.77 390.727 242.937C390.895 242.937 391.23 243.105 391.398 243.105C392.237 243.273 392.908 243.608 393.746 243.776C394.082 243.776 394.25 243.944 394.585 243.944C395.256 244.112 396.095 244.447 396.934 244.615C397.102 244.615 397.269 244.783 397.437 244.783C398.276 245.118 399.115 245.286 399.953 245.621C401.128 245.957 401.966 246.292 402.805 246.628C402.973 246.628 403.141 246.796 403.476 246.796C404.147 246.963 404.65 247.299 405.321 247.467C405.825 247.634 406.328 247.802 406.663 247.97C406.999 248.138 407.167 248.138 407.502 248.305C408.173 248.473 408.844 248.809 409.515 249.144C409.683 249.144 409.851 249.312 410.019 249.312C410.857 249.647 411.528 249.983 412.367 250.318C413.374 250.654 414.212 251.157 415.051 251.493C415.89 251.828 416.561 252.164 417.4 252.499C418.406 253.003 419.077 253.338 419.58 253.506C419.748 253.506 419.916 253.674 420.084 253.674C421.09 254.177 421.929 254.512 422.768 255.016C424.277 256.525 425.955 257.364 427.465 258.371Z" fill="url(#paint31_linear_9_4943)"/>
<path d="M330.504 362.378V83.0692" stroke="#E1CDB7" stroke-width="1.62301" stroke-miterlimit="10"/>
<path d="M330.504 369.759C335.785 369.759 340.066 365.478 340.066 360.197C340.066 354.916 335.785 350.635 330.504 350.635C325.223 350.635 320.942 354.916 320.942 360.197C320.942 365.478 325.223 369.759 330.504 369.759Z" fill="url(#paint32_linear_9_4943)"/>
<path d="M330.504 337.382C335.785 337.382 340.066 333.101 340.066 327.82C340.066 322.539 335.785 318.258 330.504 318.258C325.223 318.258 320.942 322.539 320.942 327.82C320.942 333.101 325.223 337.382 330.504 337.382Z" fill="url(#paint33_linear_9_4943)"/>
<path d="M330.504 92.6311C335.785 92.6311 340.066 88.3501 340.066 83.0692C340.066 77.7883 335.785 73.5073 330.504 73.5073C325.223 73.5073 320.942 77.7883 320.942 83.0692C320.942 88.3501 325.223 92.6311 330.504 92.6311Z" fill="#FF886F"/>
<path d="M325.639 126.853C325.639 124.169 327.82 121.988 330.504 121.988C333.188 121.988 335.369 124.169 335.369 126.853C335.369 129.537 333.188 131.718 330.504 131.718C327.82 131.55 325.639 129.369 325.639 126.853Z" fill="url(#paint34_linear_9_4943)"/>
<path d="M325.639 141.279C325.639 138.595 327.82 136.414 330.504 136.414C333.188 136.414 335.369 138.595 335.369 141.279C335.369 143.963 333.188 146.144 330.504 146.144C327.82 145.976 325.639 143.796 325.639 141.279Z" fill="url(#paint35_linear_9_4943)"/>
<path d="M325.639 243.105C325.639 240.421 327.82 238.24 330.504 238.24C333.188 238.24 335.369 240.421 335.369 243.105C335.369 245.789 333.188 247.97 330.504 247.97C327.82 247.97 325.639 245.789 325.639 243.105Z" fill="url(#paint36_linear_9_4943)"/>
<path d="M325.639 257.532C325.639 254.848 327.82 252.667 330.504 252.667C333.188 252.667 335.369 254.848 335.369 257.532C335.369 260.216 333.188 262.397 330.504 262.397C327.82 262.397 325.639 260.216 325.639 257.532Z" fill="url(#paint37_linear_9_4943)"/>
<path d="M450.447 437.866C449.273 435.853 447.763 433.505 446.421 432.666" stroke="#FAB08B" stroke-width="5.08727" stroke-miterlimit="10" stroke-linecap="round" stroke-linejoin="round"/>
<path d="M457.325 470.746C458.164 461.519 460.68 453.467 451.454 438.873" stroke="#01A3F8" stroke-width="6.4917" stroke-miterlimit="10" stroke-linecap="round" stroke-linejoin="round"/>
<path d="M459.17 554.957C460.512 555.461 461.351 556.803 461.519 558.145C461.687 559.319 461.519 560.493 461.183 560.997C460.345 562.171 459.338 563.513 457.325 562.506C455.312 561.5 446.924 557.642 446.589 555.293C446.253 552.944 450.112 551.602 457.493 554.119L459.17 554.957Z" fill="#48341E"/>
<path d="M447.595 559.319C448.937 559.822 449.776 561.164 449.944 562.506C450.112 563.681 449.944 564.855 449.608 565.358C448.77 566.532 447.763 567.874 445.75 566.868C443.737 565.861 435.349 562.003 435.014 559.655C434.678 557.306 438.537 555.964 445.918 558.48L447.595 559.319Z" fill="#48341E"/>
<path d="M452.46 512.684C452.46 512.684 448.937 533.988 447.595 537.008C447.595 537.008 450.112 561.164 448.937 562.674C447.763 564.016 443.569 564.352 442.73 562.674C441.892 560.997 436.859 531.64 438.033 528.62C439.208 525.769 442.898 507.651 442.898 507.651C442.898 507.651 453.467 507.148 452.46 512.684Z" fill="#FF5A72"/>
<path d="M463.364 507.148C463.364 507.148 459.841 528.452 458.499 531.472C458.499 531.472 461.015 555.628 459.841 557.138C458.667 558.48 454.473 558.816 453.634 557.138C452.796 555.461 447.763 526.104 448.937 523.084C450.112 520.233 453.802 502.115 453.802 502.115C453.802 502.115 464.203 501.612 463.364 507.148Z" fill="#FF5A72"/>
<path d="M441.556 480.811V506.645C441.556 512.348 442.06 512.013 443.905 513.019C443.905 513.019 447.26 514.361 450.95 512.013L460.177 506.645C462.19 505.47 463.364 503.457 463.364 501.277V480.643C463.364 480.308 463.364 479.972 463.196 479.637C463.029 476.114 461.519 470.746 457.661 468.565C451.621 465.21 445.75 470.578 445.582 470.746C442.06 474.101 441.556 477.456 441.556 480.811Z" fill="#01A3F8"/>
<path d="M451.286 463.532C452.125 463.029 453.634 463.029 454.641 463.532C455.48 464.036 455.48 465.042 454.641 465.545C453.802 466.049 452.292 466.049 451.286 465.545C450.279 464.874 450.279 464.036 451.286 463.532Z" fill="#FAA379"/>
<path d="M451.286 465.378C452.125 465.881 453.634 465.881 454.641 465.378C455.144 465.042 455.312 464.706 455.312 464.371V468.9C455.312 469.236 455.144 469.571 454.641 469.907C453.802 470.41 452.292 470.41 451.286 469.907C450.783 469.571 450.615 469.236 450.615 468.9V464.539C450.615 464.874 450.783 465.21 451.286 465.378Z" fill="#FAB08B"/>
<path d="M444.744 453.97V459.674C444.744 464.203 448.434 467.894 452.963 467.894C457.493 467.894 461.183 464.203 461.183 459.674V453.97C461.183 453.299 461.183 452.628 461.016 452.125C461.016 451.957 461.016 451.79 460.848 451.622C459.841 448.267 456.654 445.918 453.131 445.918C450.95 445.918 448.77 446.757 447.428 448.267C445.582 449.609 444.744 451.622 444.744 453.97Z" fill="#FAB08B"/>
<path d="M454.305 444.744C455.48 444.744 456.654 445.247 457.493 445.583C458.331 443.402 460.009 440.718 463.532 442.395C468.9 444.912 471.919 451.957 467.558 454.809C465.88 455.983 463.867 456.822 461.854 457.158C462.022 460.848 461.183 465.042 457.157 466.552C455.144 467.391 452.796 467.391 451.621 466.384C450.615 465.21 450.112 463.197 450.112 463.197C450.112 463.197 451.621 464.036 451.957 462.19C452.292 460.177 451.621 460.009 450.615 460.345C449.608 460.848 448.77 459.506 448.77 459.506C448.77 459.506 448.434 456.822 446.924 455.48C445.414 454.138 444.743 451.622 444.743 451.622C443.569 448.77 449.776 444.408 454.305 444.744Z" fill="#02007D"/>
<path d="M429.981 505.974C428.136 507.316 425.62 508.658 424.11 508.826" stroke="#FAB08B" stroke-width="5.08727" stroke-miterlimit="10" stroke-linecap="round" stroke-linejoin="round"/>
<path d="M445.582 476.282C444.073 485.34 444.24 493.896 431.491 505.471" stroke="#01A3F8" stroke-width="6.4917" stroke-miterlimit="10" stroke-linecap="round" stroke-linejoin="round"/>
<path d="M477.791 349.964C475.442 349.461 472.758 348.79 471.584 347.783" stroke="#FAB08B" stroke-width="5.08727" stroke-miterlimit="10" stroke-linecap="round" stroke-linejoin="round"/>
<path d="M511.006 345.77C502.618 349.628 495.74 354.493 478.965 350.635" stroke="#B5E9FE" stroke-width="6.4917" stroke-miterlimit="10" stroke-linecap="round" stroke-linejoin="round"/>
<path d="M515.2 432.498C516.542 433.001 517.38 434.343 517.548 435.686C517.716 436.86 517.548 438.034 517.213 438.537C516.374 439.712 515.367 441.054 513.354 440.047C511.341 439.041 502.954 435.182 502.618 432.834C502.283 430.485 506.141 429.143 513.522 431.659L515.2 432.498Z" fill="#B5E9FE"/>
<path d="M503.625 436.86C504.967 437.363 505.805 438.705 505.973 440.047C506.141 441.221 505.973 442.396 505.638 442.899C504.799 444.073 503.792 445.415 501.779 444.409C499.766 443.402 491.379 439.544 491.043 437.195C490.708 434.847 494.566 433.505 501.947 436.021L503.625 436.86Z" fill="#B5E9FE"/>
<path d="M508.489 390.057C508.489 390.057 504.967 411.361 503.625 414.381C503.625 414.381 506.141 438.537 504.967 440.047C503.792 441.389 499.599 441.725 498.76 440.047C497.921 438.37 492.889 409.013 494.063 405.993C495.237 403.142 498.928 385.024 498.928 385.024C498.928 385.024 509.496 384.689 508.489 390.057Z" fill="#FF5A72"/>
<path d="M519.226 384.689C519.226 384.689 515.703 405.993 514.361 409.013C514.361 409.013 516.877 433.169 515.703 434.679C514.529 436.021 510.335 436.357 509.496 434.679C508.657 433.002 503.625 403.645 504.799 400.625C505.973 397.773 509.664 379.656 509.664 379.656C509.664 379.656 520.232 379.153 519.226 384.689Z" fill="#FF5A72"/>
<path d="M498.089 359.693V385.527C498.089 391.231 498.592 390.896 500.437 391.902C500.437 391.902 503.792 393.244 507.483 390.896L516.709 385.527C518.722 384.353 519.897 382.34 519.897 380.159V359.526C519.897 359.19 519.897 358.855 519.729 358.519C519.561 354.996 518.051 349.628 514.193 347.448C508.154 344.093 502.283 349.461 502.115 349.628C498.424 352.816 498.089 356.338 498.089 359.693Z" fill="#B5E9FE"/>
<path d="M507.651 342.247C508.49 341.744 509.999 341.744 511.006 342.247C511.845 342.75 511.845 343.757 511.006 344.26C510.167 344.763 508.657 344.763 507.651 344.26C506.812 343.757 506.812 342.75 507.651 342.247Z" fill="#FAA379"/>
<path d="M507.651 344.26C508.49 344.763 509.999 344.763 511.006 344.26C511.509 343.925 511.677 343.589 511.677 343.254V347.783C511.677 348.119 511.509 348.454 511.006 348.79C510.167 349.293 508.657 349.293 507.651 348.79C507.147 348.454 506.98 348.119 506.98 347.783V343.421C506.98 343.589 507.315 343.925 507.651 344.26Z" fill="#FAB08B"/>
<path d="M470.745 368.752C468.397 368.417 465.713 367.913 464.37 367.075" stroke="#FAB08B" stroke-width="5.08727" stroke-miterlimit="10" stroke-linecap="round" stroke-linejoin="round"/>
<path d="M502.115 356.674C494.901 362.545 489.533 369.088 472.255 369.423" stroke="#B5E9FE" stroke-width="6.4917" stroke-miterlimit="10" stroke-linecap="round" stroke-linejoin="round"/>
<path d="M501.108 332.685V338.389C501.108 342.918 504.799 346.609 509.328 346.609C513.858 346.609 517.548 342.918 517.548 338.389V332.685C517.548 332.014 517.548 331.343 517.38 330.84C517.38 330.672 517.38 330.505 517.213 330.337C516.206 326.982 513.019 324.633 509.496 324.633C507.315 324.633 505.134 325.472 503.792 326.982C502.115 328.491 501.108 330.505 501.108 332.685Z" fill="#FAB08B"/>
<path d="M501.779 328.995C501.779 328.995 503.121 333.524 504.799 334.866C506.309 336.208 505.47 339.228 505.47 339.228C505.47 339.228 506.309 340.57 507.315 340.066C508.322 339.563 508.993 339.899 508.657 341.912C508.322 343.925 506.812 343.086 506.812 343.086C506.812 343.086 507.315 345.267 508.489 346.441C509.664 347.615 512.012 347.112 514.193 346.777C516.374 346.441 517.716 346.609 517.884 344.596C518.051 342.415 519.226 337.718 518.722 333.524C518.051 329.498 516.542 327.988 515.703 327.317C515.703 327.317 516.038 324.465 511.341 324.13C506.476 323.794 500.605 326.143 501.779 328.995Z" fill="#02007D"/>
<defs>
<linearGradient id="paint0_linear_9_4943" x1="500.521" y1="142.454" x2="500.521" y2="394.376" gradientUnits="userSpaceOnUse">
<stop stop-color="#E1CDB7"/>
<stop offset="1" stop-color="#E1CDB7" stop-opacity="0"/>
</linearGradient>
<linearGradient id="paint1_linear_9_4943" x1="500.941" y1="80.7626" x2="500.941" y2="163.045" gradientUnits="userSpaceOnUse">
<stop stop-color="#F0E6DB"/>
<stop offset="1" stop-color="#F0E6DB" stop-opacity="0"/>
</linearGradient>
<linearGradient id="paint2_linear_9_4943" x1="450.46" y1="94.8002" x2="555.951" y2="151.603" gradientUnits="userSpaceOnUse">
<stop stop-color="#FF5A72"/>
<stop offset="0.1515" stop-color="#FF6971"/>
<stop offset="0.7206" stop-color="#FF9C6E"/>
<stop offset="1" stop-color="#FFB06D"/>
</linearGradient>
<linearGradient id="paint3_linear_9_4943" x1="330.504" y1="52.7059" x2="330.504" y2="113.432" gradientUnits="userSpaceOnUse">
<stop stop-color="#F0E6DB"/>
<stop offset="1" stop-color="#F0E6DB" stop-opacity="0"/>
</linearGradient>
<linearGradient id="paint4_linear_9_4943" x1="40.7724" y1="294.815" x2="195.581" y2="294.815" gradientUnits="userSpaceOnUse">
<stop stop-color="#FF5A72"/>
<stop offset="0.2266" stop-color="#CA5C80"/>
<stop offset="0.603" stop-color="#785E95"/>
<stop offset="0.8698" stop-color="#445FA3"/>
<stop offset="1" stop-color="#3060A8"/>
</linearGradient>
<linearGradient id="paint5_linear_9_4943" x1="169.377" y1="560.494" x2="169.377" y2="654.058" gradientUnits="userSpaceOnUse">
<stop stop-color="#E1CDB7"/>
<stop offset="1" stop-color="#E1CDB7" stop-opacity="0"/>
</linearGradient>
<linearGradient id="paint6_linear_9_4943" x1="169.21" y1="499.977" x2="169.21" y2="620.842" gradientUnits="userSpaceOnUse">
<stop stop-color="#F0E6DB"/>
<stop offset="1" stop-color="#F0E6DB" stop-opacity="0"/>
</linearGradient>
<linearGradient id="paint7_linear_9_4943" x1="74.5637" y1="540.15" x2="209.394" y2="614.107" gradientUnits="userSpaceOnUse">
<stop stop-color="#FF5A72"/>
<stop offset="0.2266" stop-color="#CA5C80"/>
<stop offset="0.603" stop-color="#785E95"/>
<stop offset="0.8698" stop-color="#445FA3"/>
<stop offset="1" stop-color="#3060A8"/>
</linearGradient>
<linearGradient id="paint8_linear_9_4943" x1="54.5648" y1="575.093" x2="105.387" y2="600.884" gradientUnits="userSpaceOnUse">
<stop stop-color="#E1CDB7"/>
<stop offset="0.3365" stop-color="#F0E6DB"/>
<stop offset="0.7813" stop-color="#F0E6DB"/>
<stop offset="1" stop-color="#F0E6DB"/>
</linearGradient>
<linearGradient id="paint9_linear_9_4943" x1="118.213" y1="40.1871" x2="118.213" y2="322.222" gradientUnits="userSpaceOnUse">
<stop stop-color="#F0E6DB"/>
<stop offset="1" stop-color="#F0E6DB" stop-opacity="0"/>
</linearGradient>
<linearGradient id="paint10_linear_9_4943" x1="35.3249" y1="198.679" x2="201.028" y2="198.679" gradientUnits="userSpaceOnUse">
<stop stop-color="#FF5A72"/>
<stop offset="0.1515" stop-color="#FF6971"/>
<stop offset="0.7206" stop-color="#FF9C6E"/>
<stop offset="1" stop-color="#FFB06D"/>
</linearGradient>
<linearGradient id="paint11_linear_9_4943" x1="158.186" y1="133.624" x2="-19.571" y2="508.236" gradientUnits="userSpaceOnUse">
<stop stop-color="#FF5A72"/>
<stop offset="0.2266" stop-color="#CA5C80"/>
<stop offset="0.603" stop-color="#785E95"/>
<stop offset="0.8698" stop-color="#445FA3"/>
<stop offset="1" stop-color="#3060A8"/>
</linearGradient>
<linearGradient id="paint12_linear_9_4943" x1="330.504" y1="170.133" x2="330.504" y2="227.504" gradientUnits="userSpaceOnUse">
<stop stop-color="#E1CDB7"/>
<stop offset="1" stop-color="#E1CDB7" stop-opacity="0"/>
</linearGradient>
<linearGradient id="paint13_linear_9_4943" x1="330.756" y1="157.048" x2="330.756" y2="194.792" gradientUnits="userSpaceOnUse">
<stop stop-color="#E1CDB7"/>
<stop offset="1" stop-color="#E1CDB7" stop-opacity="0"/>
</linearGradient>
<linearGradient id="paint14_linear_9_4943" x1="330.923" y1="400.122" x2="330.923" y2="552.945" gradientUnits="userSpaceOnUse">
<stop stop-color="#F0E6DB"/>
<stop offset="1" stop-color="#F0E6DB" stop-opacity="0"/>
</linearGradient>
<linearGradient id="paint15_linear_9_4943" x1="330.923" y1="254.512" x2="330.923" y2="546.067" gradientUnits="userSpaceOnUse">
<stop stop-color="#E1CDB7"/>
<stop offset="1" stop-color="#FAA379"/>
</linearGradient>
<linearGradient id="paint16_linear_9_4943" x1="35.9302" y1="473.597" x2="35.9302" y2="525.265" gradientUnits="userSpaceOnUse">
<stop stop-color="#E1CDB7"/>
<stop offset="1" stop-color="#F0E6DB"/>
</linearGradient>
<linearGradient id="paint17_linear_9_4943" x1="47.3374" y1="460.513" x2="47.3374" y2="498.928" gradientUnits="userSpaceOnUse">
<stop stop-color="#F0E6DB"/>
<stop offset="1" stop-color="#F0E6DB" stop-opacity="0"/>
</linearGradient>
<linearGradient id="paint18_linear_9_4943" x1="58.6608" y1="434.343" x2="58.6608" y2="485.844" gradientUnits="userSpaceOnUse">
<stop stop-color="#E1CDB7"/>
<stop offset="1" stop-color="#F0E6DB"/>
</linearGradient>
<linearGradient id="paint19_linear_9_4943" x1="69.9841" y1="421.091" x2="69.9841" y2="459.674" gradientUnits="userSpaceOnUse">
<stop stop-color="#F0E6DB"/>
<stop offset="1" stop-color="#F0E6DB" stop-opacity="0"/>
</linearGradient>
<linearGradient id="paint20_linear_9_4943" x1="81.3911" y1="394.921" x2="81.3911" y2="446.422" gradientUnits="userSpaceOnUse">
<stop stop-color="#E1CDB7"/>
<stop offset="1" stop-color="#F0E6DB"/>
</linearGradient>
<linearGradient id="paint21_linear_9_4943" x1="92.7983" y1="381.837" x2="92.7983" y2="420.252" gradientUnits="userSpaceOnUse">
<stop stop-color="#F0E6DB"/>
<stop offset="1" stop-color="#F0E6DB" stop-opacity="0"/>
</linearGradient>
<linearGradient id="paint22_linear_9_4943" x1="91.9596" y1="407.167" x2="91.9596" y2="525.265" gradientUnits="userSpaceOnUse">
<stop stop-color="#F0E6DB"/>
<stop offset="1" stop-color="#F0E6DB" stop-opacity="0"/>
</linearGradient>
<radialGradient id="paint23_radial_9_4943" cx="0" cy="0" r="1" gradientUnits="userSpaceOnUse" gradientTransform="translate(88.3033 305.439) scale(19.9394)">
<stop offset="0.0594059" stop-color="#FFB06D"/>
<stop offset="0.1879" stop-color="#FFAB6D"/>
<stop offset="0.3438" stop-color="#FF9C6E"/>
<stop offset="0.5141" stop-color="#FF8370"/>
<stop offset="0.6934" stop-color="#FF6172"/>
<stop offset="0.7277" stop-color="#FF5A72"/>
</radialGradient>
<linearGradient id="paint24_linear_9_4943" x1="254.839" y1="348.022" x2="407.525" y2="348.022" gradientUnits="userSpaceOnUse">
<stop stop-color="#66D2FE"/>
<stop offset="0.3365" stop-color="#52A7DE"/>
<stop offset="0.7813" stop-color="#3974B7"/>
<stop offset="1" stop-color="#3060A8"/>
</linearGradient>
<linearGradient id="paint25_linear_9_4943" x1="213.323" y1="318.579" x2="519.602" y2="495.669" gradientUnits="userSpaceOnUse">
<stop stop-color="#66D2FE"/>
<stop offset="0.3365" stop-color="#52A7DE"/>
<stop offset="0.7813" stop-color="#3974B7"/>
<stop offset="1" stop-color="#3060A8"/>
</linearGradient>
<linearGradient id="paint26_linear_9_4943" x1="132.054" y1="270.178" x2="443.884" y2="409.112" gradientUnits="userSpaceOnUse">
<stop stop-color="white"/>
<stop offset="1" stop-color="#A4D4ED"/>
</linearGradient>
<linearGradient id="paint27_linear_9_4943" x1="254.197" y1="326.069" x2="406.89" y2="326.069" gradientUnits="userSpaceOnUse">
<stop stop-color="#FF5A72"/>
<stop offset="0.1515" stop-color="#FF6971"/>
<stop offset="0.7206" stop-color="#FF9C6E"/>
<stop offset="1" stop-color="#FFB06D"/>
</linearGradient>
<linearGradient id="paint28_linear_9_4943" x1="464.187" y1="376.969" x2="424.325" y2="375.819" gradientUnits="userSpaceOnUse">
<stop stop-color="#FF5A72"/>
<stop offset="0.1515" stop-color="#FF6971"/>
<stop offset="0.7206" stop-color="#FF9C6E"/>
<stop offset="1" stop-color="#FFB06D"/>
</linearGradient>
<linearGradient id="paint29_linear_9_4943" x1="83.3203" y1="190.752" x2="489.832" y2="410.988" gradientUnits="userSpaceOnUse">
<stop stop-color="white"/>
<stop offset="0.4624" stop-color="#FFD7B5"/>
<stop offset="0.8236" stop-color="#FFBB81"/>
<stop offset="1" stop-color="#FFB06D"/>
</linearGradient>
<linearGradient id="paint30_linear_9_4943" x1="443.949" y1="326.543" x2="149.926" y2="238.336" gradientUnits="userSpaceOnUse">
<stop stop-color="#FF5A72"/>
<stop offset="0.2266" stop-color="#CA5C80"/>
<stop offset="0.603" stop-color="#785E95"/>
<stop offset="0.8698" stop-color="#445FA3"/>
<stop offset="1" stop-color="#3060A8"/>
</linearGradient>
<linearGradient id="paint31_linear_9_4943" x1="192.727" y1="187.017" x2="432.922" y2="311.442" gradientUnits="userSpaceOnUse">
<stop stop-color="white"/>
<stop offset="0.0575523" stop-color="#FFF4F6"/>
<stop offset="0.5166" stop-color="#FFA2AF"/>
<stop offset="0.8415" stop-color="#FF6E83"/>
<stop offset="1" stop-color="#FF5A72"/>
</linearGradient>
<linearGradient id="paint32_linear_9_4943" x1="330.504" y1="350.635" x2="330.504" y2="369.759" gradientUnits="userSpaceOnUse">
<stop stop-color="#F0E6DB"/>
<stop offset="1" stop-color="#F0E6DB" stop-opacity="0"/>
</linearGradient>
<linearGradient id="paint33_linear_9_4943" x1="330.504" y1="318.258" x2="330.504" y2="337.382" gradientUnits="userSpaceOnUse">
<stop stop-color="#F0E6DB"/>
<stop offset="1" stop-color="#F0E6DB" stop-opacity="0"/>
</linearGradient>
<linearGradient id="paint34_linear_9_4943" x1="330.504" y1="121.988" x2="330.504" y2="131.718" gradientUnits="userSpaceOnUse">
<stop stop-color="#F0E6DB"/>
<stop offset="1" stop-color="#F0E6DB" stop-opacity="0"/>
</linearGradient>
<linearGradient id="paint35_linear_9_4943" x1="330.504" y1="136.414" x2="330.504" y2="146.144" gradientUnits="userSpaceOnUse">
<stop stop-color="#F0E6DB"/>
<stop offset="1" stop-color="#F0E6DB" stop-opacity="0"/>
</linearGradient>
<linearGradient id="paint36_linear_9_4943" x1="330.504" y1="238.24" x2="330.504" y2="247.97" gradientUnits="userSpaceOnUse">
<stop stop-color="#F0E6DB"/>
<stop offset="1" stop-color="#F0E6DB" stop-opacity="0"/>
</linearGradient>
<linearGradient id="paint37_linear_9_4943" x1="330.504" y1="252.667" x2="330.504" y2="262.397" gradientUnits="userSpaceOnUse">
<stop stop-color="#F0E6DB"/>
<stop offset="1" stop-color="#F0E6DB" stop-opacity="0"/>
</linearGradient>
</defs>
</svg>
