<svg width="192" height="58" viewBox="0 0 192 58" fill="none" xmlns="http://www.w3.org/2000/svg">
<path d="M13.1673 15.5087C23.1263 20.8056 25.6 32.5854 25.6 32.5854L18.3585 37.4622C18.3841 25.6373 9.64744 21.8871 9.64744 21.8871L13.1673 15.5087Z" fill="#B18049"/>
<path d="M5.57254 39.429C8.1202 40.8999 11.3708 40.0394 12.8329 37.5069C14.295 34.9744 13.415 31.7291 10.8673 30.2582C8.31968 28.7873 5.06911 29.6479 3.60699 32.1803C2.14487 34.7128 3.02488 37.9581 5.57254 39.429Z" fill="#B18049"/>
<path d="M15.8937 45.2261C21.1793 35.3383 32.9677 32.9573 32.9677 32.9573L37.8967 40.2025C26.0258 40.0773 22.2956 48.7928 22.2956 48.7928L15.8937 45.2261Z" fill="#F5AC85"/>
<path d="M32.6895 54.8585C35.2371 56.3294 38.4877 55.4688 39.9498 52.9363C41.412 50.4039 40.5319 47.1585 37.9843 45.6876C35.4366 44.2167 32.1861 45.0773 30.7239 47.6098C29.2618 50.1422 30.1418 53.3876 32.6895 54.8585Z" fill="#F5AC85"/>
<path d="M46.0566 42.5845C36.1116 37.2633 33.6624 25.4976 33.6624 25.4976L40.9038 20.6208C40.8642 32.4699 49.6009 36.2201 49.6009 36.2201L46.0566 42.5845Z" fill="#E1CDB7"/>
<path d="M48.3565 27.835C50.9041 29.3059 54.1547 28.4453 55.6168 25.9128C57.0789 23.3804 56.1989 20.135 53.6513 18.6641C51.1036 17.1932 47.853 18.0538 46.3909 20.5863C44.9288 23.1187 45.8088 26.3641 48.3565 27.835Z" fill="#E1CDB7"/>
<path d="M43.2091 12.3441C37.9234 22.2319 26.135 24.6129 26.135 24.6129L21.206 17.3678C33.077 17.4929 36.8072 8.77738 36.8072 8.77738L43.2091 12.3441Z" fill="#EFA14B"/>
<path d="M21.1184 11.8827C23.6661 13.3536 26.9167 12.493 28.3788 9.96054C29.8409 7.42807 28.9609 4.1827 26.4132 2.71181C23.8656 1.24092 20.615 2.10149 19.1529 4.63396C17.6908 7.16643 18.5708 10.4118 21.1184 11.8827Z" fill="#EFA14B"/>
<path d="M73.3448 18.3358H73.6395C74.6429 18.3358 75.3225 18.2296 75.6782 18.0173C76.0392 17.8049 76.2197 17.4439 76.2197 16.9342C76.2197 16.5042 76.0657 16.1909 75.7578 15.9945C75.4499 15.7927 74.9721 15.6919 74.3243 15.6919H73.7669L73.3448 18.3358ZM69.2037 24.874L71.0592 13.2152H74.2606C74.7278 13.2152 75.1181 13.2231 75.4313 13.2391C75.7445 13.255 76.0206 13.2842 76.2595 13.3267C76.7002 13.3904 77.0877 13.5098 77.4222 13.685C78.0062 13.9823 78.4469 14.3964 78.7442 14.9274C79.0468 15.4583 79.1981 16.0874 79.1981 16.8147C79.1981 17.5315 79.0388 18.2057 78.7203 18.8375C78.407 19.464 77.9797 19.9418 77.4381 20.271C77.1302 20.4568 76.7559 20.5948 76.3153 20.6851C75.8799 20.77 75.195 20.8125 74.2606 20.8125H73.7828H72.9546L72.3016 24.874H69.2037ZM87.4915 15.8034C86.5464 15.8034 85.7501 16.1484 85.1024 16.8386C84.46 17.5235 84.1388 18.3703 84.1388 19.379C84.1388 20.271 84.3936 20.9877 84.9033 21.5292C85.4129 22.0654 86.0978 22.3336 86.9579 22.3336C87.887 22.3336 88.678 21.9805 89.3311 21.2744C89.9894 20.563 90.3186 19.6976 90.3186 18.6782C90.3186 17.8394 90.0531 17.1519 89.5222 16.6156C88.9966 16.0741 88.3197 15.8034 87.4915 15.8034ZM86.7747 25.1845C85.9412 25.1845 85.1846 25.0731 84.5051 24.8501C83.8255 24.6218 83.2176 24.2767 82.6814 23.8148C82.1293 23.3317 81.6939 22.7291 81.3754 22.007C81.0621 21.285 80.9055 20.5232 80.9055 19.7215C80.9055 18.8402 81.0382 18.0252 81.3037 17.2766C81.5745 16.5227 81.9753 15.8379 82.5062 15.222C83.1221 14.4947 83.8786 13.9346 84.7758 13.5417C85.6731 13.1488 86.6446 12.9524 87.6905 12.9524C89.4425 12.9524 90.8574 13.4567 91.9352 14.4655C93.0182 15.4689 93.5598 16.7802 93.5598 18.3995C93.5598 19.2649 93.4217 20.0772 93.1456 20.8364C92.8749 21.5956 92.4767 22.2831 91.9511 22.899C91.314 23.6476 90.5522 24.2156 89.6655 24.6032C88.7842 24.9908 87.8206 25.1845 86.7747 25.1845ZM95.3946 24.874L97.2342 13.2152H100.372L98.9623 22.0867H102.817L102.379 24.874H95.3946ZM104.62 24.874L106.467 13.2152H109.645L107.797 24.874H104.62ZM112.786 24.874L114.203 15.9228H111.591L112.037 13.2152H120.271L119.825 15.9228H117.333L115.915 24.874H112.786ZM124.408 22.2778H128.015L127.609 24.874H120.888L122.727 13.2152H129.449L129.027 15.9069H125.419L125.125 17.8102H128.469L128.079 20.3426H124.718L124.408 22.2778ZM130.639 24.874L132.486 13.2152H135.664L133.816 24.874H130.639ZM135.93 24.874L141.767 13.2152H145.669L148.146 24.874H144.984L144.514 22.676H140.437L139.322 24.874H135.93ZM141.608 20.0798H144.068L143.535 17.3563L143.415 16.6316L143.368 16.0343L143.057 16.8784L142.842 17.412L141.608 20.0798ZM79.7078 33.7647L79.1822 36.982C78.7468 36.6103 78.261 36.321 77.7248 36.1139C77.1939 35.9069 76.6471 35.8034 76.0843 35.8034C75.1181 35.8034 74.3217 36.1405 73.6952 36.8147C73.0687 37.489 72.7555 38.3491 72.7555 39.395C72.7555 40.3347 73.0183 41.0647 73.5439 41.585C74.0748 42.1053 74.8181 42.3654 75.7737 42.3654C76.002 42.3654 76.2091 42.3548 76.3949 42.3336C76.586 42.3123 76.8037 42.2725 77.0479 42.2141C77.4886 42.1185 77.9505 41.9672 78.4336 41.7602L77.9478 44.7784C77.5496 44.9058 77.109 45.0014 76.6258 45.0651C76.4241 45.0916 76.1746 45.1155 75.8773 45.1368C75.5853 45.158 75.3171 45.1686 75.0729 45.1686C73.4165 45.1686 72.0866 44.6536 71.0831 43.6237C70.0797 42.5937 69.578 41.2266 69.578 39.5224C69.578 38.7048 69.7054 37.9217 69.9603 37.1731C70.2151 36.4192 70.5947 35.7396 71.0991 35.1344C71.6778 34.4283 72.4051 33.8868 73.2811 33.5098C74.1624 33.1276 75.1419 32.9364 76.2197 32.9364C76.8568 32.9364 77.4567 33.0055 78.0195 33.1435C78.5876 33.2762 79.1503 33.4833 79.7078 33.7647ZM87.6348 35.8034C86.6898 35.8034 85.8934 36.1484 85.2457 36.8386C84.6033 37.5235 84.2821 38.3703 84.2821 39.379C84.2821 40.271 84.5369 40.9877 85.0466 41.5292C85.5563 42.0654 86.2412 42.3336 87.1012 42.3336C88.0303 42.3336 88.8214 41.9805 89.4744 41.2744C90.1327 40.563 90.4619 39.6976 90.4619 38.6782C90.4619 37.8394 90.1964 37.1519 89.6655 36.6156C89.1399 36.0741 88.463 35.8034 87.6348 35.8034ZM86.9181 45.1845C86.0845 45.1845 85.328 45.0731 84.6484 44.8501C83.9689 44.6218 83.361 44.2767 82.8247 43.8148C82.2726 43.3317 81.8373 42.7291 81.5187 42.007C81.2055 41.285 81.0489 40.5232 81.0489 39.7215C81.0489 38.8402 81.1816 38.0252 81.447 37.2766C81.7178 36.5227 82.1186 35.8379 82.6495 35.222C83.2654 34.4947 84.022 33.9346 84.9192 33.5417C85.8164 33.1488 86.788 32.9524 87.8339 32.9524C89.5859 32.9524 91.0008 33.4567 92.0785 34.4655C93.1616 35.4689 93.7031 36.7802 93.7031 38.3995C93.7031 39.2649 93.5651 40.0772 93.289 40.8364C93.0182 41.5956 92.62 42.2831 92.0944 42.899C91.4574 43.6476 90.6955 44.2156 89.8089 44.6032C88.9276 44.9908 87.964 45.1845 86.9181 45.1845ZM95.5379 44.874L97.3775 33.2152H100.937L103.398 38.9729L103.502 39.2198C103.634 39.5224 103.746 39.8117 103.836 40.0878C103.932 40.3639 104.009 40.6267 104.067 40.8762V40.5816C104.067 40.4488 104.067 40.3134 104.067 40.1754C104.083 40.0427 104.094 39.9445 104.099 39.8807C104.125 39.61 104.141 39.4481 104.147 39.395C104.152 39.3419 104.173 39.1906 104.21 38.941L105.11 33.2152H108.224L106.384 44.874H102.96L100.348 38.941C100.162 38.5216 100.019 38.1765 99.9179 37.9058C99.8224 37.6297 99.7374 37.3377 99.6631 37.0298V37.3563C99.6631 37.4625 99.6631 37.5686 99.6631 37.6748C99.6472 37.8341 99.6366 37.9535 99.6313 38.0332L99.5357 38.9729L98.6517 44.874H95.5379ZM110.728 40.8603C111.216 41.3912 111.681 41.7761 112.121 42.015C112.567 42.2486 113.027 42.3654 113.499 42.3654C113.887 42.3654 114.197 42.2698 114.431 42.0787C114.67 41.8876 114.789 41.6354 114.789 41.3222C114.789 40.9028 114.317 40.4435 113.372 39.9445L113.157 39.833C112.233 39.3498 111.601 38.8879 111.261 38.4473C110.927 38.0066 110.76 37.4731 110.76 36.8466C110.76 35.6998 111.147 34.7601 111.922 34.0275C112.703 33.2895 113.706 32.9205 114.933 32.9205C115.586 32.9205 116.209 33.0347 116.804 33.2629C117.404 33.4859 117.967 33.8231 118.492 34.2743L117.154 36.5758C116.756 36.2307 116.379 35.9679 116.024 35.7874C115.668 35.6016 115.344 35.5087 115.052 35.5087C114.728 35.5087 114.46 35.6016 114.248 35.7874C114.041 35.9679 113.937 36.1909 113.937 36.4564C113.937 36.7802 114.335 37.1492 115.132 37.5633L115.785 37.9137C116.592 38.3597 117.157 38.8189 117.481 39.2914C117.805 39.7586 117.967 40.3479 117.967 41.0594C117.967 42.3017 117.534 43.2972 116.669 44.0457C115.803 44.7943 114.627 45.1686 113.141 45.1686C112.355 45.1686 111.625 45.004 110.951 44.6749C110.277 44.3404 109.663 43.8467 109.111 43.1936L110.728 40.8603ZM121.562 33.2152H124.691L123.76 39.0685L123.608 40.1197L123.568 40.7806C123.568 41.2797 123.709 41.6699 123.99 41.9513C124.134 42.0893 124.301 42.1929 124.492 42.2619C124.683 42.3309 124.909 42.3654 125.169 42.3654C126.364 42.3654 127.216 40.7674 127.725 37.5713L127.741 37.4598L128.41 33.2152H131.54L130.497 39.833C130.274 41.2664 129.987 42.2831 129.637 42.883C129.212 43.6316 128.599 44.2077 127.797 44.6112C127.001 45.0147 126.064 45.2164 124.986 45.2164C123.595 45.2164 122.48 44.8846 121.641 44.2209C120.802 43.552 120.383 42.6654 120.383 41.5611C120.383 41.2372 120.415 40.7992 120.479 40.2471C120.542 39.6896 120.638 39.0021 120.765 38.1845L121.562 33.2152ZM132.865 44.874L134.705 33.2152H137.842L136.433 42.0867H140.287L139.849 44.874H132.865ZM143.659 44.874L145.077 35.9228H142.465L142.911 33.2152H151.145L150.699 35.9228H148.206L146.789 44.874H143.659ZM151.809 44.874L153.657 33.2152H156.834L154.987 44.874H151.809ZM158.358 44.874L160.198 33.2152H163.758L166.219 38.9729L166.322 39.2198C166.455 39.5224 166.566 39.8117 166.657 40.0878C166.752 40.3639 166.829 40.6267 166.888 40.8762V40.5816C166.888 40.4488 166.888 40.3134 166.888 40.1754C166.903 40.0427 166.914 39.9445 166.919 39.8807C166.946 39.61 166.962 39.4481 166.967 39.395C166.972 39.3419 166.994 39.1906 167.031 38.941L167.931 33.2152H171.045L169.205 44.874H165.781L163.169 38.941C162.983 38.5216 162.839 38.1765 162.738 37.9058C162.643 37.6297 162.558 37.3377 162.484 37.0298V37.3563C162.484 37.4625 162.484 37.5686 162.484 37.6748C162.468 37.8341 162.457 37.9535 162.452 38.0332L162.356 38.9729L161.472 44.874H158.358ZM179.21 38.5269L185.064 38.5349C185.064 39.5649 184.918 40.4833 184.626 41.2903C184.339 42.0973 183.914 42.8061 183.352 43.4166C182.258 44.5952 180.774 45.1845 178.9 45.1845C177.063 45.1845 175.6 44.6828 174.512 43.6794C173.424 42.676 172.879 41.3301 172.879 39.6418C172.879 38.7234 173.047 37.8447 173.381 37.0059C173.716 36.1617 174.196 35.4238 174.823 34.792C175.412 34.2027 176.113 33.7487 176.925 33.4302C177.743 33.1116 178.629 32.9524 179.585 32.9524C180.694 32.9524 181.663 33.1753 182.492 33.6213C183.32 34.062 184.047 34.7468 184.674 35.6759L182.189 37.3722C181.902 36.8466 181.539 36.4537 181.098 36.1936C180.886 36.0715 180.652 35.9759 180.397 35.9069C180.142 35.8379 179.871 35.8034 179.585 35.8034C178.613 35.8034 177.806 36.1564 177.164 36.8625C176.527 37.5633 176.208 38.4553 176.208 39.5383C176.208 40.4356 176.46 41.1523 176.965 41.6885C177.469 42.2247 178.135 42.4928 178.964 42.4928C179.272 42.4928 179.561 42.4583 179.832 42.3893C180.108 42.315 180.355 42.2141 180.572 42.0867C180.79 41.954 180.973 41.7894 181.122 41.5929C181.276 41.3965 181.398 41.1682 181.488 40.9081H178.836L179.21 38.5269ZM186.588 43.552C186.588 43.1113 186.742 42.7344 187.05 42.4212C187.363 42.1079 187.743 41.9513 188.189 41.9513C188.635 41.9513 189.014 42.1053 189.328 42.4132C189.641 42.7158 189.797 43.0954 189.797 43.552C189.797 44.0086 189.643 44.3935 189.335 44.7067C189.028 45.0147 188.651 45.1686 188.205 45.1686C187.759 45.1686 187.376 45.0093 187.058 44.6908C186.745 44.3669 186.588 43.9873 186.588 43.552Z" fill="#946B3D"/>
</svg>
