<svg width="49" height="48" viewBox="0 0 49 48" fill="none" xmlns="http://www.w3.org/2000/svg">
<path d="M11.1543 12.8908C19.4322 17.2936 21.4883 27.0849 21.4883 27.0849L15.4692 31.1385C15.4905 21.3097 8.22862 18.1925 8.22862 18.1925L11.1543 12.8908Z" fill="#B18049"/>
<path d="M4.84169 32.7734C6.9593 33.996 9.66117 33.2807 10.8765 31.1757C12.0918 29.0707 11.3603 26.3732 9.24273 25.1506C7.12511 23.9279 4.42324 24.6433 3.20793 26.7482C1.99262 28.8532 2.72408 31.5508 4.84169 32.7734Z" fill="#B18049"/>
<path d="M13.4204 37.5919C17.8138 29.3731 27.6123 27.3941 27.6123 27.3941L31.7093 33.4162C21.8422 33.3122 18.7416 40.5566 18.7416 40.5566L13.4204 37.5919Z" fill="#F5AC85"/>
<path d="M27.381 45.5983C29.4986 46.8209 32.2005 46.1056 33.4158 44.0006C34.6311 41.8957 33.8996 39.1981 31.782 37.9755C29.6644 36.7529 26.9625 37.4682 25.7472 39.5732C24.5319 41.6782 25.2634 44.3757 27.381 45.5983Z" fill="#F5AC85"/>
<path d="M38.4917 35.3961C30.2255 30.9732 28.1897 21.1936 28.1897 21.1936L34.2088 17.14C34.1758 26.9889 41.4378 30.1061 41.4378 30.1061L38.4917 35.3961Z" fill="#E1CDB7"/>
<path d="M40.4035 23.1364C42.5211 24.359 45.2229 23.6437 46.4383 21.5387C47.6536 19.4337 46.9221 16.7362 44.8045 15.5136C42.6869 14.291 39.985 15.0063 38.7697 17.1113C37.5544 19.2163 38.2858 21.9138 40.4035 23.1364Z" fill="#E1CDB7"/>
<path d="M36.1249 10.2604C31.7314 18.4791 21.9329 20.4582 21.9329 20.4582L17.836 14.4361C27.7031 14.5401 30.8036 7.29573 30.8036 7.29573L36.1249 10.2604Z" fill="#EFA14B"/>
<path d="M17.7633 9.87689C19.8809 11.0995 22.5828 10.3842 23.7981 8.2792C25.0134 6.17421 24.282 3.47667 22.1644 2.25407C20.0467 1.03146 17.3449 1.74677 16.1296 3.85175C14.9142 5.95674 15.6457 8.65428 17.7633 9.87689Z" fill="#EFA14B"/>
</svg>
