<svg width="38" height="38" viewBox="0 0 38 38" fill="none" xmlns="http://www.w3.org/2000/svg">
<rect x="3.32031" y="3" width="32" height="32" rx="16" fill="#D1B28F"/>
<path d="M25.4941 14.1667L13.8275 25.8333M17.1608 15.4167C17.1608 16.5673 16.2281 17.5 15.0775 17.5C13.9269 17.5 12.9941 16.5673 12.9941 15.4167C12.9941 14.2661 13.9269 13.3333 15.0775 13.3333C16.2281 13.3333 17.1608 14.2661 17.1608 15.4167ZM26.3275 24.5833C26.3275 25.7339 25.3947 26.6667 24.2441 26.6667C23.0935 26.6667 22.1608 25.7339 22.1608 24.5833C22.1608 23.4328 23.0935 22.5 24.2441 22.5C25.3947 22.5 26.3275 23.4328 26.3275 24.5833Z" stroke="#8D663A" stroke-width="2" stroke-linecap="round" stroke-linejoin="round"/>
<rect x="3.32031" y="3" width="32" height="32" rx="16" stroke="#F0E6DB" stroke-opacity="0.25" stroke-width="5.33333"/>
</svg>
