<svg width="20" height="21" viewBox="0 0 20 21" fill="none" xmlns="http://www.w3.org/2000/svg">
<rect y="0.535156" width="20" height="20" rx="10" fill="#12B76A"/>
<path d="M15.5093 11.2588C15.3781 12.2588 14.9773 13.2042 14.3497 13.9936C13.722 14.7831 12.8914 15.3868 11.9467 15.7401C11.0021 16.0933 9.9791 16.1827 8.98749 15.9988C7.99588 15.8148 7.07305 15.3644 6.31798 14.6958C5.5629 14.0272 5.00406 13.1657 4.70139 12.2037C4.39873 11.2417 4.36365 10.2154 4.59992 9.2349C4.8362 8.25444 5.33491 7.35678 6.04258 6.63821C6.75024 5.91964 7.64016 5.40726 8.6169 5.15602C11.3245 4.46158 14.1273 5.85533 15.162 8.45255" stroke="#E3FCF1" stroke-width="1.20909" stroke-linecap="round" stroke-linejoin="round"/>
<path d="M15.5552 4.97949V8.45171H12.083" stroke="#E3FCF1" stroke-width="1.20909" stroke-linecap="round" stroke-linejoin="round"/>
</svg>
