<svg width="21" height="21" viewBox="0 0 21 21" fill="none" xmlns="http://www.w3.org/2000/svg">
<g clip-path="url(#clip0_77_31732)">
<path d="M4.04916 15.8683C4.04916 16.3104 4.22476 16.7343 4.53732 17.0468C4.84988 17.3594 5.2738 17.535 5.71583 17.535C6.15786 17.535 6.58178 17.3594 6.89434 17.0468C7.2069 16.7343 7.3825 16.3104 7.3825 15.8683C7.3825 15.4263 7.2069 15.0024 6.89434 14.6898C6.58178 14.3773 6.15786 14.2017 5.71583 14.2017C5.2738 14.2017 4.84988 14.3773 4.53732 14.6898C4.22476 15.0024 4.04916 15.4263 4.04916 15.8683Z" stroke="#175CD3" stroke-width="1.66667" stroke-linecap="round" stroke-linejoin="round"/>
<path d="M14.0492 4.20182C14.0492 4.64385 14.2248 5.06777 14.5373 5.38033C14.8499 5.69289 15.2738 5.86849 15.7158 5.86849C16.1579 5.86849 16.5818 5.69289 16.8943 5.38033C17.2069 5.06777 17.3825 4.64385 17.3825 4.20182C17.3825 3.7598 17.2069 3.33587 16.8943 3.02331C16.5818 2.71075 16.1579 2.53516 15.7158 2.53516C15.2738 2.53516 14.8499 2.71075 14.5373 3.02331C14.2248 3.33587 14.0492 3.7598 14.0492 4.20182Z" stroke="#175CD3" stroke-width="1.66667" stroke-linecap="round" stroke-linejoin="round"/>
<path d="M10.7158 15.8683H14.4658C15.2394 15.8683 15.9812 15.561 16.5282 15.0141C17.0752 14.4671 17.3825 13.7252 17.3825 12.9517C17.3825 12.1781 17.0752 11.4362 16.5282 10.8893C15.9812 10.3423 15.2394 10.035 14.4658 10.035H7.79914C7.0256 10.035 6.28373 9.7277 5.73675 9.18072C5.18977 8.63374 4.88248 7.89187 4.88248 7.11833C4.88248 6.34478 5.18977 5.60291 5.73675 5.05593C6.28373 4.50895 7.0256 4.20166 7.79914 4.20166H10.7158" stroke="#175CD3" stroke-width="1.66667" stroke-linecap="round" stroke-linejoin="round"/>
</g>
<defs>
<clipPath id="clip0_77_31732">
<rect width="20" height="20" fill="white" transform="translate(0.71582 0.0351562)"/>
</clipPath>
</defs>
</svg>
