<svg width="38" height="38" viewBox="0 0 38 38" fill="none" xmlns="http://www.w3.org/2000/svg">
<rect x="2.7002" y="3" width="32" height="32" rx="16" fill="#D1B28F"/>
<path opacity="0.587821" fill-rule="evenodd" clip-rule="evenodd" d="M14.499 16.6667C14.499 18.1394 15.6929 19.3333 17.1657 19.3333C18.6384 19.3333 19.8324 18.1394 19.8324 16.6667C19.8324 15.1939 18.6384 14 17.1657 14C15.6929 14 14.499 15.1939 14.499 16.6667ZM21.1657 19.3333C21.1657 20.4379 22.0611 21.3333 23.1657 21.3333C24.2703 21.3333 25.1657 20.4379 25.1657 19.3333C25.1657 18.2288 24.2703 17.3333 23.1657 17.3333C22.0611 17.3333 21.1657 18.2288 21.1657 19.3333Z" fill="#B18049"/>
<path fill-rule="evenodd" clip-rule="evenodd" d="M17.1549 20.6667C14.0073 20.6667 11.4249 22.2843 11.1665 25.4661C11.1524 25.6394 11.4838 26 11.651 26H22.6638C23.1646 26 23.1724 25.597 23.1646 25.4667C22.9693 22.1955 20.3468 20.6667 17.1549 20.6667ZM22.9002 22.0004C23.7369 23.1146 24.2327 24.4994 24.2327 26H26.8034C27.1651 26 27.1707 25.6978 27.1651 25.6C27.0255 23.1734 25.1712 22.0253 22.9002 22.0004Z" fill="#8D663A"/>
<rect x="2.7002" y="3" width="32" height="32" rx="16" stroke="#F0E6DB" stroke-opacity="0.25" stroke-width="5.33333"/>
</svg>
