<svg width="57" height="56" viewBox="0 0 57 56" fill="none" xmlns="http://www.w3.org/2000/svg">
<rect x="4.28418" y="4" width="48" height="48" rx="24" fill="#FEF0C7"/>
<g clip-path="url(#clip0_76_24370)">
<path d="M28.284 24V28M28.284 32H28.294M26.574 18.86L18.104 33C17.9293 33.3024 17.8369 33.6453 17.8359 33.9945C17.835 34.3437 17.9254 34.6871 18.0984 34.9905C18.2713 35.2939 18.5207 35.5467 18.8217 35.7238C19.1226 35.9009 19.4648 35.9961 19.814 36H36.754C37.1032 35.9961 37.4453 35.9009 37.7462 35.7238C38.0472 35.5467 38.2966 35.2939 38.4695 34.9905C38.6425 34.6871 38.7329 34.3437 38.732 33.9945C38.731 33.6453 38.6386 33.3024 38.464 33L29.994 18.86C29.8157 18.5661 29.5647 18.3231 29.2652 18.1544C28.9656 17.9858 28.6277 17.8972 28.284 17.8972C27.9402 17.8972 27.6023 17.9858 27.3028 18.1544C27.0032 18.3231 26.7522 18.5661 26.574 18.86Z" stroke="#DC6803" stroke-width="2" stroke-linecap="round" stroke-linejoin="round"/>
</g>
<rect x="4.28418" y="4" width="48" height="48" rx="24" stroke="#FFFAEB" stroke-width="8"/>
<defs>
<clipPath id="clip0_76_24370">
<rect width="24" height="24" fill="white" transform="translate(16.2842 16)"/>
</clipPath>
</defs>
</svg>
